<svg width="133" height="41" viewBox="0 0 133 41" fill="none" xmlns="http://www.w3.org/2000/svg">
<path d="M52.1377 22.4057H42.7416L40.9445 26.5047H35.4756L45.3103 4.57129H49.5704L59.4051 26.5047H53.9362L52.1391 22.4057H52.1377ZM44.6756 17.9853H50.1896L47.4403 11.7139L44.6756 17.9853Z" fill="#2B2A36"/>
<path d="M67.844 12.8765L73.2974 4.57129H79.0682L70.3676 17.7254V26.5047H65.3373V17.7254L56.6367 4.57129H62.4075L67.8454 12.8765H67.844Z" fill="#2B2A36"/>
<path d="M86.4383 13.4421V26.5033H81.4081V4.57129H87.6162L93.9455 19.5606L100.275 4.57129H106.483V26.5047H101.453V13.4435L95.9542 26.5047H91.9354L86.4369 13.4435L86.4383 13.4421Z" fill="#2B2A36"/>
<path d="M121.459 4.26562C128.06 4.26562 133 8.70173 133 15.5387C133 22.3757 128.06 26.8118 121.459 26.8118C114.857 26.8118 109.917 22.3757 109.917 15.5387C109.917 8.70173 114.857 4.26562 121.459 4.26562ZM121.459 22.39C125.19 22.39 127.97 19.9277 127.97 15.5373C127.97 11.1469 125.191 8.68459 121.459 8.68459C117.726 8.68459 114.947 11.1469 114.947 15.5373C114.947 19.9277 117.726 22.39 121.459 22.39Z" fill="#2B2A36"/>
<path d="M21.7233 40.2635L14.7747 33.228L21.2663 18.7513L21.2465 18.7299L6.94723 25.3027L0 18.2686L39.7452 0L39.7664 0.0214236L21.7233 40.2635Z" fill="#FF4C00"/>
<path d="M6.88516 25.3672L14.7126 33.2925L0.414714 39.8652L0.393555 39.8438L6.88516 25.3672Z" fill="#FF4C00"/>
<path d="M43.7507 30.4092H44.9258L40.6432 40.264H39.7601L35.4775 30.4092H36.6512L40.2017 38.643L43.7522 30.4092H43.7507Z" fill="#2B2A36"/>
<path d="M55.7807 34.731V35.7208H50.6559V39.2743H56.5748V40.264H49.5557V30.4092H56.5057V31.3989H50.6545V34.7325H55.7793L55.7807 34.731Z" fill="#2B2A36"/>
<path d="M61.5625 30.4092H62.8518L68.363 38.6901V30.4092H69.4633V40.264H68.174L62.6628 31.9831V40.264H61.5625V30.4092Z" fill="#2B2A36"/>
<path d="M82.4944 30.4092V31.3989H78.8974V40.264H77.7971V31.3989H74.2001V30.4092H82.4944Z" fill="#2B2A36"/>
<path d="M87.2255 36.0431V30.4072H88.3257V35.7674C88.3257 38.1311 89.1397 39.4094 91.1089 39.4094C93.0781 39.4094 93.892 38.1311 93.892 35.7674V30.4072H94.9909V36.0431C94.9909 38.8538 93.6804 40.4006 91.1089 40.4006C88.5373 40.4006 87.2269 38.8538 87.2269 36.0431H87.2255Z" fill="#2B2A36"/>
<path d="M100.535 40.264V30.4092H105.034C106.901 30.4092 108.042 31.5361 108.042 33.2685C108.042 34.801 106.97 35.8251 105.625 36.0593L108.008 40.2655H106.806L104.465 36.1278H101.633V40.2655H100.533L100.535 40.264ZM101.635 31.3989V35.1381H105.036C106.339 35.1381 106.929 34.3554 106.929 33.2685C106.929 32.1816 106.338 31.3989 105.036 31.3989H101.635Z" fill="#2B2A36"/>
<path d="M119.462 34.731V35.7208H114.338V39.2743H120.257V40.264H113.237V30.4092H120.189V31.3989H114.338V34.7325H119.462V34.731Z" fill="#2B2A36"/>
<path d="M125.915 38.0844C125.915 38.0844 126.287 39.4112 128.413 39.4112C130.171 39.4112 131.081 38.6957 131.081 37.5831C131.081 36.579 130.456 36.0163 128.413 35.6721C125.719 35.2179 124.938 34.3039 124.938 32.8199C124.938 31.246 126.234 30.2705 128.413 30.2705C131.644 30.2705 131.95 32.4486 131.95 32.4486H130.769C130.769 32.4486 130.525 31.2603 128.413 31.2603C126.967 31.2603 126.05 31.803 126.05 32.8199C126.05 33.7611 126.587 34.311 128.413 34.6138C131.04 35.0537 132.194 35.8306 132.194 37.5831C132.194 39.4255 130.687 40.401 128.413 40.401C124.978 40.401 124.734 38.0844 124.734 38.0844H125.915Z" fill="#2B2A36"/>
</svg>
