<svg xmlns="http://www.w3.org/2000/svg" viewBox="0 0 483.07 133.17"><defs><style>.cls-1{fill:#006734;fill-rule:evenodd;}</style></defs><g id="Layer_2" data-name="Layer 2"><g id="Layer_1-2" data-name="Layer 1"><path class="cls-1" d="M442,32.18c-5,0-8.58,2.42-11.23,6.58a27.28,27.28,0,0,0-4,15.09,27.3,27.3,0,0,0,4,15.09c2.65,4.15,6.21,6.58,11.23,6.58s8.59-2.43,11.23-6.58a27.3,27.3,0,0,0,4.15-15.09,27.28,27.28,0,0,0-4.15-15.09C450.57,34.6,447,32.18,442,32.18M363.09,53.85a27.3,27.3,0,0,0,4,15.09c2.64,4.15,6.21,6.58,11.23,6.58s8.58-2.43,11.23-6.58a27.3,27.3,0,0,0,4-15.09,27.28,27.28,0,0,0-4-15.09c-2.65-4.16-6.21-6.58-11.23-6.58s-8.59,2.42-11.23,6.58A27.28,27.28,0,0,0,363.09,53.85Zm-63.65,0a27.3,27.3,0,0,0,4,15.09c2.64,4.15,6.21,6.58,11.23,6.58s8.58-2.43,11.23-6.58a27.3,27.3,0,0,0,4-15.09,27.28,27.28,0,0,0-4-15.09c-2.65-4.16-6.21-6.58-11.23-6.58s-8.59,2.42-11.23,6.58A27.28,27.28,0,0,0,299.44,53.85Zm-34.59,0a27.35,27.35,0,0,0-4.14-15.09c-2.65-4.16-6.22-6.58-11.23-6.58s-8.59,2.42-11.24,6.58a27.36,27.36,0,0,0-4,15.09,27.38,27.38,0,0,0,4,15.09c2.65,4.15,6.22,6.58,11.24,6.58s8.58-2.43,11.23-6.58A27.37,27.37,0,0,0,264.85,53.85Zm-157.32-4.2h4.06c5.39,0,11.3-1.37,15.42-5,2.17-2,4.35-5.22,3.4-8.28-1.13-3.66-6.07-4.42-9.31-4.42C111.57,31.9,108.64,41.62,107.53,49.65Zm-55.42,0h4.07c5.39,0,11.3-1.37,15.42-5,2.17-2,4.35-5.22,3.4-8.28-1.14-3.66-6.07-4.42-9.31-4.42C56.15,31.9,53.22,41.62,52.11,49.65ZM457.36,24.46V.13h14V58.32c0,8.25,3.27,14.59,9.81,19.59l1.91,1.46L472.78,89.65l-1.46-1.14a36.38,36.38,0,0,1-8.38-9.5,25.36,25.36,0,0,1-21,10.5c-9,0-16.16-3.77-21.66-10.88s-7.85-15.75-7.85-24.78,2.27-17.58,7.85-24.79S433,18.18,442,18.18A22.15,22.15,0,0,1,457.36,24.46Zm-79-6.28c9,0,16.16,3.78,21.66,10.88s7.85,15.75,7.85,24.79S405.57,71.42,400,78.63s-12.63,10.88-21.66,10.88-16.16-3.77-21.66-10.88-7.85-15.75-7.85-24.78,2.27-17.58,7.85-24.79S369.3,18.18,378.33,18.18Zm-63.65,0c9,0,16.16,3.78,21.66,10.88s7.85,15.75,7.85,24.79-2.27,17.57-7.85,24.78-12.63,10.88-21.66,10.88S298.52,85.74,293,78.63s-7.85-15.75-7.85-24.78,2.27-17.58,7.85-24.79S305.65,18.18,314.68,18.18ZM264.85,83.23a22.08,22.08,0,0,1-15.37,6.28c-8.89,0-16.13-3.87-21.5-10.85-5.73-7.16-8-15.73-8-24.81s2.28-17.58,7.85-24.79,12.63-10.88,21.67-10.88A25.14,25.14,0,0,1,269.07,27c.29.33.58.66.85,1a112,112,0,0,1,7.43-13.65l1.26-2,11.47,9.32-1.5,1.64c-5.91,6.49-9.73,17.36-9.73,26.07V98.9a36.84,36.84,0,0,1-8,23.55c-5.45,6.87-12.53,10.72-21.36,10.72a28.3,28.3,0,0,1-23.93-12l-1.14-1.55,10.66-9.46,1.34,2a14.75,14.75,0,0,0,13.07,7c4.76,0,8.4-2.29,11.15-6.12a23.71,23.71,0,0,0,4.22-14.16ZM196.29,60.69l-5.87-2.38c-9-3.63-15.3-9.73-15.3-19.85a18.91,18.91,0,0,1,6.54-14.26,21.71,21.71,0,0,1,15.14-6c7.33,0,14.33,1.92,19.11,7.76L217,27.28,208.14,38.1l-1.64-1.65c-2.71-2.7-5.8-4.55-9.7-4.55-3.69,0-7.69,2.56-7.69,6.56a4.92,4.92,0,0,0,2.22,4.32l.07,0,.07.06C192.79,44,196,45.35,197.62,46l5.6,2.37c8.58,3.65,14.56,9.72,14.56,19.42a20.11,20.11,0,0,1-7.13,15.41,23.29,23.29,0,0,1-16,6.27c-8.47,0-15.56-3.47-21.15-9.8l-1.19-1.34L181.77,67l1.61,2.14c2.81,3.74,6.46,6.71,11.32,6.71,4.27,0,9.09-2.5,9.09-7.27C203.79,64.44,199.61,62,196.29,60.69ZM167.63.31V88.12H153.35V.31ZM108.36,62.66c1.69,6.58,5,13.14,12.74,13.14,5.5,0,9.57-2.79,12.89-7l1.32-1.68,10.77,8.77-1.19,1.61a28.07,28.07,0,0,1-23.79,12c-9,0-16.23-3.61-21.46-11-5-7.28-6.66-16-6.66-24.68,0-8.88,2-17.48,7.26-24.74,5.18-7.09,12-10.93,20.86-10.93,9.76,0,20.22,3.75,23.2,14,2.13,7.3-.7,15-5.79,20.36-6.92,7.3-17.11,10.11-26.92,10.11Zm-93.81-12v39H0V0H39V14.55H14.55V36.08H33.62V50.64Zm38.39,12c1.7,6.58,5,13.14,12.75,13.14,5.49,0,9.57-2.79,12.88-7l1.33-1.68,10.76,8.77-1.18,1.61a28.07,28.07,0,0,1-23.79,12c-9,0-16.24-3.61-21.46-11-5-7.28-6.66-16-6.66-24.68,0-8.88,2-17.48,7.26-24.74C50,22,56.85,18.18,65.69,18.18c9.76,0,20.22,3.75,23.2,14,2.12,7.3-.7,15-5.79,20.36C76.18,59.85,66,62.66,56.18,62.66Z"/><path class="cls-1" d="M304.41,95.77a49.27,49.27,0,0,0,82.76,0l.86-1.32,10.66,10.66-.63.88a64,64,0,0,1-104.54,0l-.62-.88,10.66-10.66Z"/><path class="cls-1" d="M314.53,36.16a6.07,6.07,0,1,1-6.07,6.07,6.07,6.07,0,0,1,6.07-6.07"/><path class="cls-1" d="M378.13,36.16a6.07,6.07,0,1,1-6.07,6.07,6.07,6.07,0,0,1,6.07-6.07"/></g></g></svg>