<svg width="75" height="75" viewBox="0 0 75 75" fill="none" xmlns="http://www.w3.org/2000/svg">
<g id="logo">
<path id="Vector" d="M75 0H0V75H75V0Z" fill="#D31124"/>
<path id="Vector_2" d="M15.9964 51.9955V57.2431H24.8497V59.7981H15.9964V67.6008H12.7305V49.4685H27.291V51.9955H15.9964Z" fill="white"/>
<path id="Vector_3" d="M38.9559 60.3479H34.6172V67.6008H31.3809V49.4685H39.5929C41.7701 49.4685 43.4897 49.9493 44.7518 50.9108C46.0138 51.8723 46.6448 53.2023 46.6448 54.9008C46.6448 56.2012 46.2734 57.2849 45.5306 58.1519C44.7877 59.0189 43.7346 59.6371 42.3711 60.0065L47.8388 67.589H44.0794L38.9559 60.3479ZM34.6216 57.9022H39.3224C40.6445 57.9022 41.6297 57.6598 42.278 57.1751C42.9262 56.6904 43.2518 55.9436 43.2548 54.9348C43.2548 53.9279 42.9292 53.1816 42.278 52.696C41.6268 52.2103 40.6416 51.9679 39.3224 51.9689H34.6172L34.6216 57.9022Z" fill="white"/>
<path id="Vector_4" d="M65.2815 66.5575C63.8037 67.4353 62.0688 67.8747 60.0767 67.8756C58.1428 67.8756 56.4636 67.5003 55.039 66.7496C53.6399 66.0237 52.4913 64.8941 51.7421 63.5073C50.9687 62.0975 50.582 60.44 50.582 58.5346C50.582 56.6293 50.9687 54.9717 51.7421 53.5619C52.4913 52.1752 53.6399 51.0456 55.039 50.3197C56.4636 49.569 58.1325 49.1936 60.0457 49.1936C62.0594 49.1936 63.7534 49.569 65.1278 50.3197C66.4789 51.0448 67.5324 52.2217 68.104 53.6447L65.0214 54.8801C64.6135 53.7964 64.0224 53.0043 63.248 52.5038C62.4737 52.0034 61.4698 51.7516 60.2363 51.7487C58.3428 51.7487 56.8315 52.3487 55.7025 53.5486C54.5735 54.7486 54.009 56.4106 54.009 58.5346C54.009 60.6774 54.5508 62.3438 55.6345 63.5339C56.7182 64.724 58.2137 65.3196 60.1211 65.3206C61.4225 65.3206 62.5165 65.025 63.4032 64.4339C64.2899 63.8428 64.9258 62.9817 65.311 61.8508L68.4247 62.7862C67.8519 64.3732 66.7393 65.7081 65.2815 66.5575Z" fill="white"/>
</g>
</svg>
