<svg width="167" height="48" viewBox="0 0 167 48" fill="none" xmlns="http://www.w3.org/2000/svg">
<path fill-rule="evenodd" clip-rule="evenodd" d="M18.2737 25.9986C19.6387 25.9986 20.4669 24.4846 19.7349 23.327L12.9936 12.6716C12.2606 11.514 13.0888 10 14.4548 10H18.8899C19.4725 10 20.016 10.2946 20.3362 10.7833L28.535 23.3064C29.2923 24.463 28.4669 26.0014 27.0887 26.0014H22.4706C21.8787 26.0014 21.3278 26.3053 21.0094 26.8072L11.9068 41.1942C11.5893 41.6961 11.0384 42 10.4455 42H5.73409C4.35595 42 3.53056 40.4616 4.28779 39.305L12.4866 26.7828C12.8069 26.2941 13.3503 25.9995 13.9329 25.9995L18.2737 25.9986Z" fill="#00C853"/>
<path fill-rule="evenodd" clip-rule="evenodd" d="M34.3355 25.9986C35.7006 25.9986 36.5288 24.4846 35.7967 23.327L29.0554 12.6716C28.3225 11.514 29.1507 10 30.5167 10H34.9517C35.5344 10 36.0778 10.2946 36.398 10.7833L44.5968 23.3064C45.3541 24.463 44.5287 26.0014 43.1505 26.0014H38.5325C37.9405 26.0014 37.3887 26.3053 37.0712 26.8072L27.9686 41.1942C27.6511 41.6961 27.1003 42 26.5074 42H21.7959C20.4178 42 19.5924 40.4616 20.3496 39.305L28.5484 26.7828C28.8687 26.2941 29.4121 25.9995 29.9947 25.9995L34.3355 25.9986Z" fill="#00C853"/>
<path d="M51.9925 11.1098H72.4553V16.5265H58.2172V24.1171H71.5609V29.5338H58.2172V40.5455H51.9925V11.1098Z" fill="#1a1a1a"/>
<path d="M83.4502 40.9018C79.9444 40.9018 77.2851 39.9634 75.4726 38.0865C73.6839 36.2097 72.7895 33.5964 72.7895 30.2465V27.6807C72.7895 24.3309 73.6839 21.7176 75.4726 19.8407C77.2613 17.9639 79.9205 17.0255 83.4502 17.0255C86.9561 17.0255 89.6034 17.9639 91.3921 19.8407C93.1808 21.7176 94.0751 24.3309 94.0751 27.6807V30.2465C94.0751 33.5964 93.1808 36.2097 91.3921 38.0865C89.6034 39.9634 86.9561 40.9018 83.4502 40.9018ZM78.9069 30.7811C78.9069 32.3728 79.2408 33.6082 79.9086 34.4873C80.6002 35.3663 81.7808 35.8058 83.4502 35.8058C85.0958 35.8058 86.2525 35.3663 86.9203 34.4873C87.6119 33.6082 87.9577 32.3728 87.9577 30.7811V27.1462C87.9577 25.5544 87.6119 24.319 86.9203 23.44C86.2525 22.561 85.0958 22.1215 83.4502 22.1215C81.7808 22.1215 80.6002 22.561 79.9086 23.44C79.2408 24.319 78.9069 25.5544 78.9069 27.1462V30.7811Z" fill="#1a1a1a"/>
<path d="M101.909 20.8029C102.696 19.615 103.662 18.6885 104.807 18.0233C105.976 17.3581 107.311 17.0255 108.814 17.0255C111.199 17.0255 113.047 17.8451 114.359 19.4844C115.67 21.0999 116.326 23.2737 116.326 26.0058V40.5455H110.352V26.6829C110.352 25.1624 110.018 24.0221 109.35 23.2618C108.706 22.5016 107.681 22.1215 106.274 22.1215C104.628 22.1215 103.483 22.5847 102.839 23.5113C102.219 24.4378 101.909 25.5307 101.909 26.7898V40.5455H95.9351V17.3818H101.909V20.8029Z" fill="#1a1a1a"/>
<path d="M128.625 40.9018C125.119 40.9018 122.46 39.9634 120.647 38.0865C118.858 36.2097 117.964 33.5964 117.964 30.2465V27.6807C117.964 24.3309 118.858 21.7176 120.647 19.8407C122.436 17.9639 125.095 17.0255 128.625 17.0255C132.131 17.0255 134.778 17.9639 136.567 19.8407C138.355 21.7176 139.25 24.3309 139.25 27.6807V30.2465C139.25 33.5964 138.355 36.2097 136.567 38.0865C134.778 39.9634 132.131 40.9018 128.625 40.9018ZM124.081 30.7811C124.081 32.3728 124.415 33.6082 125.083 34.4873C125.775 35.3663 126.955 35.8058 128.625 35.8058C130.27 35.8058 131.427 35.3663 132.095 34.4873C132.786 33.6082 133.132 32.3728 133.132 30.7811V27.1462C133.132 25.5544 132.786 24.319 132.095 23.44C131.427 22.561 130.27 22.1215 128.625 22.1215C126.955 22.1215 125.775 22.561 125.083 23.44C124.415 24.319 124.081 25.5544 124.081 27.1462V30.7811Z" fill="#1a1a1a"/>
<path d="M155.205 37.16C154.346 38.4429 153.213 39.3932 151.806 40.0109C150.423 40.6048 148.873 40.9018 147.155 40.9018C144.914 40.9018 143.185 40.3792 141.968 39.3338C140.776 38.2885 140.179 36.768 140.179 34.7724C140.179 32.7055 140.871 31.1493 142.254 30.104C143.661 29.0587 145.474 28.2272 147.692 27.6095L150.16 27.0036C151.973 26.5522 153.237 26.1484 153.952 25.792C154.668 25.4119 155.026 24.8536 155.026 24.1171V23.9389C155.026 23.3687 154.728 22.9055 154.131 22.5491C153.559 22.1927 152.629 22.0145 151.341 22.0145C149.791 22.0145 148.67 22.2759 147.978 22.7985C147.31 23.2975 146.977 24.0339 146.977 25.008V26.184H140.967V25.5069C140.967 22.6798 141.837 20.5653 143.578 19.1636C145.343 17.7382 147.907 17.0255 151.269 17.0255C154.751 17.0255 157.244 17.7144 158.746 19.0924C160.249 20.4465 161 22.4422 161 25.0793V40.5455H155.205V37.16ZM146.225 34.0596C146.225 34.7248 146.452 35.2119 146.905 35.5207C147.358 35.8058 148.074 35.9484 149.051 35.9484C150.673 35.9484 152.021 35.5207 153.094 34.6655C154.167 33.8102 154.811 32.6461 155.026 31.1731V29.0349C154.811 29.5101 154.465 29.8783 153.988 30.1396C153.535 30.3772 152.82 30.6504 151.842 30.9593L151.126 31.1731L148.873 31.7789C147.919 32.064 147.239 32.3847 146.833 32.7411C146.428 33.0737 146.225 33.5132 146.225 34.0596Z" fill="#1a1a1a"/>
</svg>
