<svg xmlns="http://www.w3.org/2000/svg" height="800" width="1200" viewBox="-132.87405 -46.86325 1151.5751 281.1795"><g fill="#e20074"><path d="M0 124.242h36.183v-37.49H0zm112.036 0h37.927v-37.49h-37.927zm111.6 0h37.927v-37.49h-37.927z"/><path d="M313.876 146.04c0 12.642 1.743 19.617 5.667 23.54 1.744 3.488 6.975 5.231 14.386 5.231h10.898v10.899h-90.239v-10.9h16.13c7.41-1.743 10.898-6.975 12.642-12.642 1.744-3.487 1.744-9.155 1.744-16.13V10.9c-16.13 0-27.028 5.667-36.183 14.385-8.719 9.155-12.642 23.541-14.386 43.158L223.636 66.7l2.18-64.955H373.6l1.744 64.955-10.899 1.743c-1.743-19.617-6.975-34.003-14.386-43.158-9.154-8.718-21.796-14.386-36.182-14.386"/><path d="M337.416 124.242h37.927v-37.49h-37.927zm510.484 0h37.927v-37.49H847.9zM451.196 39.67v23.541c0 5.231 0 6.975 1.744 9.155 0 1.744 1.744 1.744 5.231 1.744h1.744v3.487h-28.772V74.11h1.744c2.18 0 3.923 0 5.667-1.744 1.744-2.18 1.744-3.924 1.744-9.155V16.566c0-5.668 0-7.411-1.744-9.155-1.744-1.744-3.488-1.744-5.667-1.744h-1.744V1.744h28.772v3.923h-1.744c-3.487 0-5.231 0-5.231 1.744-1.744 1.744-1.744 3.487-1.744 9.155v17.873h27.028V16.566c0-5.668 0-7.411-1.743-9.155 0-1.744-1.744-1.744-5.668-1.744h-1.743V1.744h28.772v3.923h-1.744c-1.744 0-3.488 0-5.231 1.744-1.744 1.744-1.744 3.487-1.744 9.155V63.21c0 5.231 0 6.975 1.744 9.155 1.743 1.744 3.487 1.744 5.23 1.744h1.745v3.487H469.07V74.11h1.743c3.924 0 5.668 0 5.668-1.744 1.743-2.18 1.743-3.924 1.743-9.155v-23.54m41.415-.001c3.487-10.898 9.154-16.13 14.385-16.13 5.668 0 9.155 3.488 9.155 7.412 0 3.487-1.744 6.975-5.667 6.975-3.488 0-5.231-1.744-5.231-5.232 0-1.743 0-3.923 1.743-5.667h-1.743c-1.744 0-5.232 5.667-9.155 10.899-1.744 5.23-1.744 12.642-1.744 23.54v10.898c1.744 1.745 3.488 1.745 5.667 1.745h3.488v3.487h-27.028V74.11h1.744c5.23 0 5.23-1.744 5.23-9.155V37.927c0-6.975 0-9.155-5.23-9.155h-1.744v-3.488l16.13-1.743m50.568 54.056l-16.13-41.414c-1.743-5.231-3.923-7.411-5.667-7.411h-1.743v-3.488h23.54v3.488h-1.743c-3.924 0-5.668 0-5.668 3.923 0 0 0 1.744 1.744 3.488l10.899 30.516 10.898-28.772v-5.232c0-1.743-1.744-3.923-5.231-3.923h-1.744v-3.488h19.617v3.488c-5.231 0-6.975 2.18-9.154 7.41l-14.386 41.415m74.109-14.386c-1.744 5.231-1.744 5.231-1.744 9.155-1.743 3.487-5.667 5.231-9.154 5.231-5.232 0-6.975-1.744-9.155-9.155-3.488 7.411-8.719 10.899-16.13 10.899-6.975 0-12.642-5.231-12.642-14.386 0-10.899 9.155-17.874 28.772-17.874v-7.41c0-8.72-3.488-12.643-10.463-12.643-3.923 0-5.667 1.744-7.41 3.924 1.743 0 3.487 1.743 3.487 5.23 0 3.488-1.744 6.976-5.231 6.976-3.488 0-7.411-3.488-7.411-6.975 0-7.411 9.155-12.642 18.31-12.642 6.974 0 12.641 1.743 16.129 7.41 1.744 1.744 1.744 5.232 1.744 12.207v21.797c0 5.231 1.743 7.41 3.487 7.41 2.18 0 2.18-2.179 2.18-7.41V63.21zM629.495 50.57c-5.231 0-8.719 0-12.642 1.744-3.488 3.487-6.975 7.41-6.975 12.642 0 5.231 3.487 9.155 6.975 9.155 5.667 0 7.41-3.924 10.898-7.411 1.744-3.488 1.744-5.232 1.744-12.643m37.927 7.41v6.975c1.743 3.924 3.923 5.668 5.667 5.668 5.231 0 6.975-5.668 6.975-12.643v-1.743h3.923v1.743c0 10.899-3.923 17.874-12.642 17.874-5.667 0-9.155-1.744-10.898-5.231-1.744-1.744-1.744-5.668-1.744-12.643V28.772h-9.155v-3.488c10.899-1.743 12.642-6.975 14.386-19.617h3.488v19.617h14.386v3.488h-14.386m54.492 12.642h-3.924c-1.743-8.719-5.23-14.386-12.642-14.386-5.231 0-8.719 3.924-8.719 9.155 0 3.487 1.744 5.231 8.72 6.975 7.41 3.923 10.898 3.923 12.641 5.667 5.668 3.488 7.411 6.975 7.411 12.642 0 10.899-7.41 17.874-18.309 17.874-3.487 0-6.975-1.744-12.642-5.231h-1.744s0 1.743-1.744 3.487h-1.743V57.98h1.743c1.744 5.231 3.488 8.719 5.667 10.462 1.744 3.924 6.976 7.411 10.463 7.411 5.667 0 9.155-5.667 9.155-10.898 0-1.744-1.744-5.231-3.488-6.975-3.487-2.18-3.487-2.18-10.898-3.924-9.155-3.487-12.642-8.718-12.642-16.13 0-6.974 5.23-14.385 14.386-14.385 3.487 0 9.154 1.743 10.898 3.487h1.744c1.743 0 1.743 0 1.743-1.744h3.924m46.646 52.313l-17.874-27.028-3.924 5.231v9.155c0 7.41 0 9.155 5.668 9.155h1.743v3.487H728.89V74.11h1.744c5.667 0 7.41-1.744 7.41-9.155V14.386c0-6.975-1.743-8.719-7.41-8.719V1.744L746.763 0v48.825l14.821-12.642c3.488-1.744 3.488-3.488 3.488-5.231 0-2.18-1.744-2.18-3.488-2.18h-2.18v-3.488h21.798v3.488h-1.744c-1.744 0-3.488 0-9.155 5.667l-12.642 10.899 14.386 21.36c3.923 5.668 5.667 7.412 9.155 7.412v3.487m21.796-12.642c0 7.41 1.744 9.155 6.975 9.155h1.744v3.487h-25.284V74.11h2.18c3.487 0 5.23-1.744 5.23-9.155V37.927c0-6.975-1.743-9.155-5.23-9.155h-2.18v-3.488l16.565-1.743zm1.744-57.544c0 3.487-3.487 5.231-7.41 5.231-3.488 0-5.232-1.744-5.232-5.231 0-3.488 1.744-7.411 5.231-7.411 3.924 0 7.411 3.923 7.411 7.411M463.838 171.324c0 5.231 0 6.975 1.744 8.719 0 2.18 3.488 2.18 5.231 2.18h3.924v3.487H442.04v-3.488h3.488c2.18 0 3.923 0 5.667-2.18 1.744-1.743 1.744-3.487 1.744-8.718V113.78h-1.744c-7.41 0-12.642 3.487-14.386 8.719-1.744 3.487-3.923 7.41-3.923 12.642h-3.488v-25.285h57.98v25.285h-3.923c-1.744-16.13-6.975-21.361-17.874-21.361h-1.744m34.005 44.902c0 16.13 3.923 23.54 12.642 23.54 7.41 0 10.898-2.18 14.386-10.898l3.923 1.744c-5.667 9.154-10.898 14.385-20.053 14.385-12.642 0-21.36-10.898-21.36-28.771 0-16.13 8.718-27.029 21.36-27.029 10.899 0 20.053 10.899 20.053 27.029zm20.053-3.488c1.744-12.642-3.488-20.053-9.155-20.053-6.975 0-10.898 7.41-10.898 20.053m54.492 17.874c0 6.975 1.744 9.154 5.231 9.154h1.744v3.488h-23.54v-3.488h1.743c3.923 0 5.667-2.18 5.667-9.154v-50.57c0-6.974-1.744-8.718-5.667-8.718h-1.744v-3.924l16.566-1.743m23.105 50.569c0 16.13 5.667 23.54 14.386 23.54 5.667 0 9.154-2.18 12.642-10.898l3.923 1.744c-3.923 9.154-10.898 14.385-18.31 14.385-14.385 0-23.54-10.898-23.54-28.771 0-16.13 9.155-27.029 21.797-27.029 12.642 0 20.053 10.899 21.797 27.029zm21.797-3.488c0-12.642-3.488-20.053-10.899-20.053-5.231 0-10.898 7.41-10.898 20.053m75.853 30.516l-16.13-27.028-5.667 3.487v10.899c0 6.975 2.18 9.154 7.41 9.154h1.745v3.488h-25.285v-3.488h1.744c5.667 0 5.667-2.18 5.667-9.154v-50.57c0-6.974 0-8.718-5.667-8.718h-1.744v-3.924l16.13-1.743v48.825l16.566-12.642c1.743-1.744 3.487-3.488 3.487-5.668 0-1.743-1.744-1.743-5.231-1.743h-2.18v-3.488h23.54v3.488h-1.743c-3.487 0-5.231 0-9.155 5.667l-12.642 10.462 12.642 21.797c3.924 5.232 5.668 7.411 10.899 7.411v3.488m48.825-27.028c0 17.873-9.155 28.771-23.54 28.771-12.643 0-21.798-10.898-21.798-28.771 0-16.13 9.155-27.029 23.541-27.029 12.642 0 21.797 10.899 21.797 27.029zm-32.695-16.13c-1.744 3.487-1.744 8.719-1.744 16.13 0 16.13 3.923 25.284 12.642 25.284 7.411 0 10.899-9.155 10.899-25.284 0-7.411 0-12.643-1.744-16.13-1.744-5.667-5.232-7.411-9.155-7.411-5.231 0-8.719 1.744-10.898 7.41m101.137 10.463c0-6.975 0-10.462-1.743-12.206 0-2.18-3.488-3.923-5.232-3.923-3.923 0-5.667 1.743-7.41 5.667-3.488 3.487-3.488 6.975-3.488 16.13v14.386c0 6.975 1.744 9.154 5.231 9.154h1.744v3.488h-16.13v-30.516c0-9.155 0-10.898-1.744-14.386-1.743-2.18-3.487-3.923-5.23-3.923-3.924 0-7.412 1.743-9.156 5.667-1.743 3.487-1.743 6.975-1.743 16.13v14.386c0 6.975 1.743 9.154 5.23 9.154h1.745v3.488h-23.105v-3.488h1.744c3.487 0 5.23-2.18 5.23-9.154v-27.029c0-7.41-1.743-9.154-5.23-9.154h-1.744v-3.488l16.13-1.744v10.899c1.743-7.411 6.975-10.899 12.642-10.899 6.975 0 10.898 3.488 14.386 10.899 1.744-7.411 6.975-10.899 12.642-10.899 5.231 0 8.719 1.744 12.642 6.975 1.744 2.18 1.744 5.668 1.744 12.643v21.797c0 6.975 1.744 9.154 6.975 9.154v3.488h-16.13"/></g></svg>