<svg xmlns="http://www.w3.org/2000/svg" xmlns:xlink="http://www.w3.org/1999/xlink" width="1640" viewBox="0 0 1230 211.499994" height="282" preserveAspectRatio="xMidYMid meet"><path fill="#db790c" d="M 324.191406 188.867188 C 322.882812 189.28125 321.539062 189.484375 320.167969 189.484375 L 316.539062 189.484375 C 319.105469 189.484375 321.65625 189.28125 324.191406 188.867188 Z M 324.191406 188.867188 " fill-opacity="1" fill-rule="nonzero"></path><path fill="#db790c" d="M 995.449219 188.867188 C 994.140625 189.273438 992.804688 189.476562 991.433594 189.476562 L 987.804688 189.476562 C 990.371094 189.476562 992.917969 189.273438 995.449219 188.867188 Z M 995.449219 188.867188 " fill-opacity="1" fill-rule="nonzero"></path><path fill="#db790c" d="M 1218.097656 141.402344 C 1218.097656 142.976562 1218.019531 144.546875 1217.863281 146.113281 C 1217.707031 147.679688 1217.472656 149.234375 1217.164062 150.78125 C 1216.855469 152.324219 1216.472656 153.851562 1216.015625 155.355469 C 1215.558594 156.863281 1215.027344 158.34375 1214.421875 159.796875 C 1213.820312 161.253906 1213.144531 162.675781 1212.402344 164.0625 C 1211.660156 165.453125 1210.851562 166.800781 1209.976562 168.109375 C 1209.101562 169.417969 1208.164062 170.679688 1207.164062 171.898438 C 1206.164062 173.117188 1205.109375 174.28125 1203.996094 175.394531 C 1202.882812 176.507812 1201.71875 177.566406 1200.5 178.5625 C 1199.285156 179.5625 1198.019531 180.5 1196.710938 181.375 C 1195.402344 182.25 1194.054688 183.058594 1192.667969 183.804688 C 1191.277344 184.546875 1189.855469 185.21875 1188.402344 185.824219 C 1186.949219 186.425781 1185.46875 186.957031 1183.960938 187.414062 C 1182.457031 187.875 1180.929688 188.257812 1179.386719 188.566406 C 1177.84375 188.875 1176.285156 189.105469 1174.71875 189.261719 C 1173.152344 189.417969 1171.582031 189.496094 1170.007812 189.5 L 1075.300781 189.5 C 1074.417969 189.5 1073.546875 189.414062 1072.683594 189.242188 C 1071.816406 189.070312 1070.980469 188.816406 1070.164062 188.476562 C 1069.351562 188.140625 1068.578125 187.726562 1067.84375 187.238281 C 1067.113281 186.75 1066.433594 186.191406 1065.8125 185.570312 C 1065.1875 184.945312 1064.632812 184.269531 1064.144531 183.535156 C 1063.652344 182.804688 1063.242188 182.03125 1062.902344 181.214844 C 1062.566406 180.402344 1062.3125 179.5625 1062.140625 178.699219 C 1061.96875 177.832031 1061.882812 176.960938 1061.882812 176.082031 C 1061.882812 175.199219 1061.96875 174.328125 1062.140625 173.460938 C 1062.3125 172.597656 1062.566406 171.757812 1062.902344 170.945312 C 1063.242188 170.128906 1063.652344 169.359375 1064.144531 168.625 C 1064.632812 167.890625 1065.1875 167.214844 1065.8125 166.589844 C 1066.433594 165.96875 1067.113281 165.410156 1067.84375 164.921875 C 1068.578125 164.433594 1069.351562 164.019531 1070.164062 163.683594 C 1070.980469 163.34375 1071.816406 163.089844 1072.683594 162.917969 C 1073.546875 162.746094 1074.417969 162.660156 1075.300781 162.660156 L 1170.007812 162.660156 C 1170.703125 162.660156 1171.398438 162.625 1172.089844 162.558594 C 1172.785156 162.492188 1173.472656 162.386719 1174.15625 162.253906 C 1174.839844 162.117188 1175.511719 161.949219 1176.179688 161.746094 C 1176.84375 161.542969 1177.5 161.308594 1178.144531 161.042969 C 1178.785156 160.777344 1179.414062 160.480469 1180.027344 160.152344 C 1180.640625 159.820312 1181.238281 159.464844 1181.816406 159.078125 C 1182.398438 158.691406 1182.953125 158.277344 1183.492188 157.835938 C 1184.03125 157.394531 1184.546875 156.925781 1185.039062 156.433594 C 1185.53125 155.941406 1186 155.425781 1186.441406 154.886719 C 1186.882812 154.351562 1187.296875 153.792969 1187.683594 153.210938 C 1188.070312 152.632812 1188.425781 152.035156 1188.753906 151.421875 C 1189.082031 150.808594 1189.378906 150.179688 1189.648438 149.535156 C 1189.914062 148.894531 1190.148438 148.238281 1190.347656 147.570312 C 1190.550781 146.90625 1190.71875 146.230469 1190.855469 145.546875 C 1190.992188 144.863281 1191.09375 144.175781 1191.164062 143.484375 C 1191.230469 142.792969 1191.265625 142.097656 1191.265625 141.402344 C 1191.265625 140.703125 1191.230469 140.007812 1191.164062 139.316406 C 1191.09375 138.625 1190.992188 137.9375 1190.855469 137.253906 C 1190.71875 136.570312 1190.550781 135.894531 1190.347656 135.230469 C 1190.148438 134.5625 1189.914062 133.90625 1189.648438 133.265625 C 1189.378906 132.621094 1189.082031 131.992188 1188.753906 131.378906 C 1188.425781 130.765625 1188.070312 130.167969 1187.683594 129.589844 C 1187.296875 129.007812 1186.882812 128.449219 1186.441406 127.914062 C 1186 127.375 1185.53125 126.859375 1185.039062 126.367188 C 1184.546875 125.875 1184.03125 125.40625 1183.492188 124.964844 C 1182.953125 124.523438 1182.398438 124.109375 1181.816406 123.722656 C 1181.238281 123.335938 1180.640625 122.980469 1180.027344 122.648438 C 1179.414062 122.320312 1178.785156 122.023438 1178.144531 121.757812 C 1177.5 121.492188 1176.84375 121.257812 1176.179688 121.054688 C 1175.511719 120.851562 1174.839844 120.683594 1174.15625 120.546875 C 1173.472656 120.414062 1172.785156 120.308594 1172.089844 120.242188 C 1171.398438 120.175781 1170.703125 120.140625 1170.007812 120.140625 L 1110.914062 120.082031 C 1110.609375 120.082031 1110.292969 120.117188 1109.980469 120.117188 C 1108.417969 120.097656 1106.859375 120.003906 1105.304688 119.832031 C 1103.753906 119.660156 1102.210938 119.414062 1100.683594 119.09375 C 1099.152344 118.773438 1097.644531 118.378906 1096.152344 117.910156 C 1094.660156 117.441406 1093.195312 116.902344 1091.757812 116.289062 C 1090.320312 115.679688 1088.914062 114.996094 1087.542969 114.25 C 1086.171875 113.5 1084.839844 112.6875 1083.546875 111.808594 C 1082.253906 110.929688 1081.007812 109.992188 1079.804688 108.992188 C 1078.605469 107.992188 1077.457031 106.9375 1076.355469 105.824219 C 1075.257812 104.710938 1074.21875 103.550781 1073.234375 102.335938 C 1072.246094 101.121094 1071.324219 99.863281 1070.460938 98.5625 C 1069.601562 97.257812 1068.804688 95.914062 1068.070312 94.535156 C 1067.339844 93.152344 1066.679688 91.738281 1066.085938 90.292969 C 1065.492188 88.847656 1064.96875 87.375 1064.519531 85.878906 C 1064.070312 84.382812 1063.691406 82.867188 1063.390625 81.335938 C 1063.085938 79.800781 1062.859375 78.257812 1062.707031 76.699219 C 1062.554688 75.144531 1062.480469 73.585938 1062.480469 72.023438 C 1062.480469 70.460938 1062.554688 68.902344 1062.707031 67.34375 C 1062.859375 65.789062 1063.085938 64.246094 1063.390625 62.710938 C 1063.691406 61.179688 1064.070312 59.664062 1064.519531 58.167969 C 1064.96875 56.667969 1065.492188 55.199219 1066.085938 53.753906 C 1066.679688 52.304688 1067.339844 50.894531 1068.070312 49.511719 C 1068.804688 48.128906 1069.601562 46.789062 1070.460938 45.484375 C 1071.324219 44.179688 1072.246094 42.921875 1073.234375 41.710938 C 1074.21875 40.496094 1075.257812 39.332031 1076.355469 38.222656 C 1077.457031 37.109375 1078.605469 36.054688 1079.804688 35.054688 C 1081.007812 34.054688 1082.253906 33.113281 1083.546875 32.234375 C 1084.839844 31.359375 1086.171875 30.542969 1087.542969 29.796875 C 1088.914062 29.046875 1090.320312 28.367188 1091.757812 27.757812 C 1093.195312 27.144531 1094.660156 26.605469 1096.152344 26.136719 C 1097.644531 25.667969 1099.152344 25.273438 1100.683594 24.953125 C 1102.210938 24.628906 1103.753906 24.382812 1105.304688 24.210938 C 1106.859375 24.042969 1108.417969 23.945312 1109.980469 23.925781 L 1198.742188 23.925781 C 1199.625 23.925781 1200.496094 24.011719 1201.359375 24.183594 C 1202.222656 24.355469 1203.0625 24.613281 1203.875 24.949219 C 1204.691406 25.285156 1205.464844 25.699219 1206.195312 26.1875 C 1206.929688 26.679688 1207.605469 27.234375 1208.230469 27.859375 C 1208.851562 28.480469 1209.410156 29.160156 1209.898438 29.890625 C 1210.386719 30.625 1210.800781 31.398438 1211.136719 32.210938 C 1211.476562 33.023438 1211.730469 33.863281 1211.902344 34.726562 C 1212.074219 35.59375 1212.160156 36.464844 1212.160156 37.347656 C 1212.160156 38.226562 1212.074219 39.101562 1211.902344 39.964844 C 1211.730469 40.828125 1211.476562 41.667969 1211.136719 42.480469 C 1210.800781 43.296875 1210.386719 44.070312 1209.898438 44.800781 C 1209.410156 45.535156 1208.851562 46.210938 1208.230469 46.835938 C 1207.605469 47.457031 1206.929688 48.015625 1206.195312 48.503906 C 1205.464844 48.992188 1204.691406 49.40625 1203.875 49.746094 C 1203.0625 50.082031 1202.222656 50.335938 1201.359375 50.507812 C 1200.496094 50.679688 1199.625 50.765625 1198.742188 50.765625 L 1109.980469 50.765625 C 1109.292969 50.769531 1108.609375 50.804688 1107.921875 50.871094 C 1107.238281 50.941406 1106.5625 51.039062 1105.886719 51.175781 C 1105.214844 51.308594 1104.546875 51.476562 1103.890625 51.675781 C 1103.230469 51.875 1102.585938 52.105469 1101.949219 52.367188 C 1101.3125 52.628906 1100.691406 52.917969 1100.085938 53.242188 C 1099.480469 53.5625 1098.890625 53.914062 1098.316406 54.292969 C 1097.742188 54.671875 1097.1875 55.078125 1096.65625 55.511719 C 1096.121094 55.941406 1095.609375 56.402344 1095.121094 56.882812 C 1094.632812 57.367188 1094.167969 57.871094 1093.726562 58.398438 C 1093.285156 58.925781 1092.871094 59.472656 1092.484375 60.042969 C 1092.097656 60.609375 1091.738281 61.195312 1091.40625 61.796875 C 1091.078125 62.398438 1090.777344 63.015625 1090.507812 63.648438 C 1090.234375 64.28125 1089.996094 64.921875 1089.789062 65.578125 C 1089.578125 66.234375 1089.402344 66.898438 1089.257812 67.570312 C 1089.117188 68.242188 1089.003906 68.917969 1088.925781 69.601562 C 1088.847656 70.285156 1088.804688 70.96875 1088.792969 71.65625 C 1088.78125 72.34375 1088.800781 73.03125 1088.855469 73.714844 C 1088.910156 74.398438 1089 75.082031 1089.121094 75.757812 C 1089.242188 76.433594 1089.394531 77.101562 1089.578125 77.765625 C 1089.765625 78.425781 1089.984375 79.078125 1090.230469 79.71875 C 1090.480469 80.359375 1090.761719 80.984375 1091.070312 81.597656 C 1091.378906 82.210938 1091.71875 82.808594 1092.085938 83.390625 C 1092.453125 83.972656 1092.847656 84.53125 1093.269531 85.074219 C 1093.691406 85.617188 1094.140625 86.136719 1094.613281 86.636719 C 1095.085938 87.136719 1095.582031 87.609375 1096.097656 88.0625 C 1096.617188 88.511719 1097.15625 88.9375 1097.71875 89.335938 C 1098.277344 89.734375 1098.855469 90.105469 1099.449219 90.445312 C 1100.046875 90.789062 1100.65625 91.101562 1101.285156 91.386719 C 1101.910156 91.667969 1102.546875 91.921875 1103.199219 92.140625 C 1103.851562 92.363281 1104.507812 92.550781 1105.179688 92.707031 C 1105.847656 92.867188 1106.523438 92.992188 1107.203125 93.082031 C 1107.882812 93.175781 1108.566406 93.234375 1109.253906 93.257812 L 1109.980469 93.257812 L 1170.007812 93.316406 C 1171.582031 93.316406 1173.152344 93.398438 1174.71875 93.550781 C 1176.285156 93.707031 1177.839844 93.941406 1179.382812 94.25 C 1180.929688 94.558594 1182.453125 94.941406 1183.957031 95.398438 C 1185.464844 95.855469 1186.945312 96.386719 1188.398438 96.992188 C 1189.851562 97.59375 1191.273438 98.265625 1192.664062 99.011719 C 1194.050781 99.753906 1195.398438 100.5625 1196.707031 101.4375 C 1198.015625 102.3125 1199.277344 103.25 1200.496094 104.246094 C 1201.710938 105.246094 1202.878906 106.300781 1203.992188 107.414062 C 1205.105469 108.527344 1206.160156 109.695312 1207.160156 110.910156 C 1208.160156 112.128906 1209.097656 113.390625 1209.972656 114.699219 C 1210.847656 116.007812 1211.65625 117.355469 1212.398438 118.742188 C 1213.140625 120.132812 1213.816406 121.554688 1214.417969 123.007812 C 1215.023438 124.460938 1215.554688 125.941406 1216.011719 127.449219 C 1216.46875 128.953125 1216.855469 130.480469 1217.164062 132.023438 C 1217.472656 133.566406 1217.703125 135.121094 1217.859375 136.6875 C 1218.015625 138.253906 1218.097656 139.824219 1218.097656 141.402344 Z M 1218.097656 141.402344 " fill-opacity="1" fill-rule="nonzero"></path><path fill="#db790c" d="M 364.628906 33.980469 L 364.628906 141.402344 C 364.628906 142.816406 364.5625 144.226562 364.4375 145.632812 C 364.3125 147.042969 364.125 148.441406 363.875 149.835938 C 363.625 151.226562 363.3125 152.605469 362.941406 153.96875 C 362.570312 155.332031 362.140625 156.679688 361.652344 158.003906 C 361.160156 159.332031 360.613281 160.632812 360.011719 161.914062 C 359.40625 163.191406 358.746094 164.441406 358.03125 165.660156 C 357.316406 166.882812 356.550781 168.066406 355.734375 169.21875 C 354.914062 170.375 354.046875 171.488281 353.128906 172.5625 C 352.210938 173.640625 351.25 174.675781 350.242188 175.667969 C 349.234375 176.65625 348.183594 177.601562 347.09375 178.5 C 346 179.402344 344.875 180.25 343.707031 181.050781 C 342.539062 181.851562 341.34375 182.597656 340.109375 183.289062 C 338.878906 183.984375 337.617188 184.625 336.332031 185.207031 C 335.042969 185.789062 333.730469 186.316406 332.398438 186.78125 C 331.0625 187.25 329.710938 187.65625 328.339844 188.007812 C 326.96875 188.355469 325.585938 188.640625 324.191406 188.867188 C 321.65625 189.28125 319.105469 189.484375 316.539062 189.484375 L 263.421875 189.484375 C 261.847656 189.484375 260.277344 189.402344 258.710938 189.25 C 257.144531 189.09375 255.589844 188.859375 254.046875 188.550781 C 252.5 188.242188 250.976562 187.859375 249.46875 187.402344 C 247.964844 186.941406 246.484375 186.410156 245.03125 185.808594 C 243.574219 185.203125 242.152344 184.53125 240.765625 183.789062 C 239.378906 183.046875 238.027344 182.234375 236.71875 181.359375 C 235.410156 180.484375 234.148438 179.546875 232.929688 178.550781 C 231.714844 177.550781 230.550781 176.492188 229.4375 175.378906 C 228.320312 174.265625 227.265625 173.101562 226.265625 171.882812 C 225.269531 170.667969 224.332031 169.402344 223.457031 168.09375 C 222.582031 166.785156 221.773438 165.4375 221.027344 164.046875 C 220.285156 162.660156 219.613281 161.238281 219.007812 159.785156 C 218.40625 158.328125 217.875 156.847656 217.417969 155.34375 C 216.957031 153.835938 216.574219 152.308594 216.265625 150.765625 C 215.957031 149.222656 215.726562 147.664062 215.570312 146.097656 C 215.414062 144.53125 215.335938 142.960938 215.332031 141.386719 L 215.332031 33.980469 C 215.332031 33.101562 215.417969 32.226562 215.589844 31.363281 C 215.761719 30.5 216.015625 29.660156 216.355469 28.84375 C 216.691406 28.03125 217.105469 27.257812 217.59375 26.527344 C 218.082031 25.792969 218.640625 25.113281 219.261719 24.492188 C 219.886719 23.867188 220.5625 23.3125 221.296875 22.824219 C 222.027344 22.332031 222.800781 21.921875 223.617188 21.582031 C 224.429688 21.246094 225.269531 20.992188 226.132812 20.820312 C 226.996094 20.648438 227.871094 20.5625 228.75 20.5625 C 229.632812 20.5625 230.503906 20.648438 231.367188 20.820312 C 232.230469 20.992188 233.070312 21.246094 233.882812 21.582031 C 234.699219 21.921875 235.472656 22.332031 236.203125 22.824219 C 236.9375 23.3125 237.613281 23.867188 238.238281 24.492188 C 238.859375 25.113281 239.417969 25.792969 239.90625 26.523438 C 240.394531 27.257812 240.808594 28.03125 241.144531 28.84375 C 241.484375 29.660156 241.738281 30.5 241.910156 31.363281 C 242.082031 32.226562 242.167969 33.101562 242.167969 33.980469 L 242.167969 141.402344 C 242.167969 142.097656 242.203125 142.789062 242.273438 143.484375 C 242.339844 144.175781 242.445312 144.863281 242.582031 145.546875 C 242.714844 146.230469 242.886719 146.902344 243.089844 147.570312 C 243.292969 148.234375 243.527344 148.890625 243.792969 149.53125 C 244.058594 150.175781 244.355469 150.804688 244.683594 151.417969 C 245.015625 152.03125 245.371094 152.625 245.757812 153.207031 C 246.144531 153.785156 246.558594 154.34375 247 154.878906 C 247.441406 155.417969 247.910156 155.933594 248.402344 156.425781 C 248.894531 156.917969 249.410156 157.382812 249.945312 157.824219 C 250.484375 158.269531 251.042969 158.683594 251.621094 159.070312 C 252.199219 159.457031 252.796875 159.8125 253.410156 160.140625 C 254.023438 160.46875 254.652344 160.769531 255.292969 161.035156 C 255.9375 161.300781 256.589844 161.535156 257.257812 161.738281 C 257.921875 161.941406 258.597656 162.109375 259.277344 162.246094 C 259.960938 162.382812 260.648438 162.488281 261.339844 162.554688 C 262.035156 162.625 262.726562 162.660156 263.421875 162.660156 L 316.539062 162.660156 C 317.234375 162.660156 317.929688 162.625 318.621094 162.554688 C 319.316406 162.488281 320.003906 162.382812 320.683594 162.246094 C 321.367188 162.109375 322.042969 161.941406 322.707031 161.738281 C 323.375 161.535156 324.027344 161.300781 324.671875 161.035156 C 325.3125 160.769531 325.941406 160.46875 326.554688 160.140625 C 327.167969 159.8125 327.765625 159.457031 328.34375 159.070312 C 328.921875 158.683594 329.480469 158.269531 330.019531 157.824219 C 330.554688 157.382812 331.070312 156.917969 331.5625 156.425781 C 332.054688 155.933594 332.519531 155.417969 332.964844 154.878906 C 333.40625 154.34375 333.820312 153.785156 334.207031 153.207031 C 334.59375 152.625 334.949219 152.03125 335.277344 151.417969 C 335.605469 150.804688 335.90625 150.175781 336.171875 149.53125 C 336.4375 148.890625 336.671875 148.234375 336.875 147.570312 C 337.078125 146.902344 337.246094 146.230469 337.382812 145.546875 C 337.519531 144.863281 337.621094 144.175781 337.691406 143.484375 C 337.761719 142.789062 337.796875 142.097656 337.796875 141.402344 L 337.796875 33.980469 C 337.796875 33.101562 337.882812 32.226562 338.054688 31.363281 C 338.226562 30.5 338.480469 29.660156 338.816406 28.84375 C 339.15625 28.03125 339.570312 27.257812 340.058594 26.527344 C 340.546875 25.792969 341.105469 25.113281 341.726562 24.492188 C 342.351562 23.867188 343.027344 23.3125 343.761719 22.824219 C 344.492188 22.332031 345.265625 21.921875 346.078125 21.582031 C 346.894531 21.246094 347.730469 20.992188 348.597656 20.820312 C 349.460938 20.648438 350.332031 20.5625 351.214844 20.5625 C 352.09375 20.5625 352.96875 20.648438 353.832031 20.820312 C 354.695312 20.992188 355.535156 21.246094 356.347656 21.582031 C 357.164062 21.921875 357.933594 22.332031 358.667969 22.824219 C 359.402344 23.3125 360.078125 23.867188 360.699219 24.492188 C 361.324219 25.113281 361.878906 25.792969 362.371094 26.523438 C 362.859375 27.257812 363.273438 28.03125 363.609375 28.84375 C 363.945312 29.660156 364.199219 30.5 364.371094 31.363281 C 364.542969 32.226562 364.628906 33.101562 364.628906 33.980469 Z M 364.628906 33.980469 " fill-opacity="1" fill-rule="nonzero"></path><path fill="#db790c" d="M 1035.890625 33.980469 L 1035.890625 141.402344 C 1035.890625 142.976562 1035.8125 144.546875 1035.660156 146.117188 C 1035.503906 147.683594 1035.273438 149.238281 1034.96875 150.785156 C 1034.660156 152.332031 1034.277344 153.855469 1033.824219 155.363281 C 1033.367188 156.871094 1032.835938 158.355469 1032.234375 159.808594 C 1031.628906 161.265625 1030.957031 162.6875 1030.214844 164.078125 C 1029.472656 165.464844 1028.664062 166.816406 1027.789062 168.125 C 1026.914062 169.4375 1025.976562 170.699219 1024.976562 171.917969 C 1023.980469 173.136719 1022.921875 174.300781 1021.808594 175.414062 C 1020.695312 176.53125 1019.527344 177.585938 1018.3125 178.585938 C 1017.09375 179.585938 1015.832031 180.523438 1014.519531 181.398438 C 1013.210938 182.273438 1011.859375 183.082031 1010.472656 183.824219 C 1009.082031 184.566406 1007.660156 185.238281 1006.203125 185.84375 C 1004.75 186.445312 1003.269531 186.972656 1001.761719 187.429688 C 1000.253906 187.890625 998.726562 188.269531 997.183594 188.578125 C 995.636719 188.882812 994.082031 189.113281 992.511719 189.269531 C 990.945312 189.421875 989.375 189.5 987.800781 189.5 L 934.683594 189.5 C 933.109375 189.496094 931.539062 189.417969 929.972656 189.261719 C 928.40625 189.105469 926.847656 188.875 925.304688 188.566406 C 923.761719 188.257812 922.238281 187.875 920.730469 187.414062 C 919.222656 186.957031 917.742188 186.425781 916.289062 185.824219 C 914.835938 185.21875 913.414062 184.546875 912.027344 183.804688 C 910.636719 183.058594 909.289062 182.25 907.980469 181.375 C 906.671875 180.5 905.410156 179.5625 904.191406 178.5625 C 902.976562 177.5625 901.808594 176.507812 900.695312 175.394531 C 899.582031 174.28125 898.527344 173.117188 897.527344 171.898438 C 896.53125 170.679688 895.59375 169.417969 894.71875 168.109375 C 893.84375 166.800781 893.035156 165.449219 892.292969 164.0625 C 891.550781 162.671875 890.875 161.253906 890.273438 159.796875 C 889.667969 158.34375 889.140625 156.863281 888.679688 155.355469 C 888.222656 153.847656 887.839844 152.324219 887.53125 150.78125 C 887.222656 149.234375 886.992188 147.679688 886.835938 146.113281 C 886.679688 144.546875 886.601562 142.976562 886.597656 141.402344 L 886.597656 33.980469 C 886.597656 33.101562 886.683594 32.226562 886.855469 31.363281 C 887.027344 30.5 887.285156 29.660156 887.621094 28.84375 C 887.957031 28.03125 888.371094 27.257812 888.859375 26.527344 C 889.351562 25.792969 889.90625 25.113281 890.527344 24.492188 C 891.152344 23.867188 891.828125 23.3125 892.5625 22.824219 C 893.292969 22.332031 894.066406 21.921875 894.882812 21.582031 C 895.695312 21.246094 896.535156 20.992188 897.398438 20.820312 C 898.261719 20.648438 899.136719 20.5625 900.015625 20.5625 C 900.898438 20.5625 901.769531 20.648438 902.632812 20.820312 C 903.496094 20.992188 904.335938 21.246094 905.152344 21.582031 C 905.964844 21.921875 906.738281 22.332031 907.46875 22.824219 C 908.203125 23.3125 908.878906 23.867188 909.503906 24.492188 C 910.125 25.113281 910.683594 25.792969 911.171875 26.523438 C 911.660156 27.257812 912.074219 28.03125 912.410156 28.84375 C 912.75 29.660156 913.003906 30.5 913.175781 31.363281 C 913.347656 32.226562 913.433594 33.101562 913.433594 33.980469 L 913.433594 141.402344 C 913.433594 142.097656 913.46875 142.789062 913.539062 143.484375 C 913.605469 144.175781 913.707031 144.863281 913.84375 145.546875 C 913.980469 146.226562 914.152344 146.902344 914.351562 147.566406 C 914.554688 148.234375 914.789062 148.886719 915.054688 149.53125 C 915.324219 150.175781 915.621094 150.800781 915.949219 151.417969 C 916.277344 152.03125 916.632812 152.625 917.019531 153.203125 C 917.40625 153.785156 917.820312 154.339844 918.261719 154.878906 C 918.703125 155.417969 919.171875 155.933594 919.664062 156.425781 C 920.15625 156.917969 920.667969 157.382812 921.207031 157.824219 C 921.746094 158.265625 922.304688 158.683594 922.882812 159.070312 C 923.460938 159.457031 924.054688 159.8125 924.667969 160.140625 C 925.28125 160.46875 925.910156 160.769531 926.554688 161.035156 C 927.195312 161.300781 927.851562 161.535156 928.515625 161.738281 C 929.183594 161.941406 929.855469 162.109375 930.539062 162.246094 C 931.21875 162.382812 931.90625 162.488281 932.601562 162.554688 C 933.292969 162.625 933.988281 162.660156 934.683594 162.660156 L 987.800781 162.660156 C 988.496094 162.660156 989.1875 162.625 989.882812 162.554688 C 990.574219 162.488281 991.261719 162.382812 991.945312 162.246094 C 992.625 162.109375 993.300781 161.941406 993.964844 161.738281 C 994.632812 161.535156 995.285156 161.300781 995.929688 161.035156 C 996.570312 160.769531 997.199219 160.46875 997.8125 160.140625 C 998.425781 159.8125 999.023438 159.457031 999.601562 159.070312 C 1000.179688 158.683594 1000.738281 158.269531 1001.277344 157.824219 C 1001.816406 157.382812 1002.328125 156.917969 1002.820312 156.425781 C 1003.3125 155.933594 1003.78125 155.417969 1004.222656 154.878906 C 1004.664062 154.34375 1005.078125 153.785156 1005.464844 153.207031 C 1005.851562 152.625 1006.210938 152.03125 1006.539062 151.417969 C 1006.867188 150.804688 1007.164062 150.175781 1007.429688 149.53125 C 1007.695312 148.890625 1007.929688 148.234375 1008.132812 147.570312 C 1008.335938 146.902344 1008.507812 146.230469 1008.644531 145.546875 C 1008.777344 144.863281 1008.882812 144.175781 1008.949219 143.484375 C 1009.019531 142.789062 1009.054688 142.097656 1009.054688 141.402344 L 1009.054688 33.980469 C 1009.054688 33.101562 1009.140625 32.226562 1009.3125 31.363281 C 1009.484375 30.5 1009.738281 29.660156 1010.078125 28.84375 C 1010.414062 28.03125 1010.828125 27.257812 1011.316406 26.527344 C 1011.804688 25.792969 1012.363281 25.113281 1012.984375 24.492188 C 1013.609375 23.867188 1014.285156 23.3125 1015.019531 22.824219 C 1015.75 22.332031 1016.523438 21.921875 1017.339844 21.582031 C 1018.152344 21.246094 1018.992188 20.992188 1019.855469 20.820312 C 1020.71875 20.648438 1021.59375 20.5625 1022.472656 20.5625 C 1023.355469 20.5625 1024.226562 20.648438 1025.089844 20.820312 C 1025.953125 20.992188 1026.792969 21.246094 1027.605469 21.582031 C 1028.421875 21.921875 1029.195312 22.332031 1029.925781 22.824219 C 1030.660156 23.3125 1031.335938 23.867188 1031.960938 24.492188 C 1032.582031 25.113281 1033.140625 25.792969 1033.628906 26.523438 C 1034.117188 27.257812 1034.53125 28.03125 1034.867188 28.84375 C 1035.207031 29.660156 1035.460938 30.5 1035.632812 31.363281 C 1035.804688 32.226562 1035.890625 33.101562 1035.890625 33.980469 Z M 1035.890625 33.980469 " fill-opacity="1" fill-rule="nonzero"></path><path fill="#db790c" d="M 558.675781 70.113281 L 558.675781 111.855469 C 558.675781 112.738281 558.589844 113.609375 558.417969 114.472656 C 558.246094 115.339844 557.992188 116.175781 557.65625 116.992188 C 557.316406 117.804688 556.902344 118.578125 556.414062 119.3125 C 555.925781 120.042969 555.367188 120.722656 554.746094 121.34375 C 554.121094 121.96875 553.445312 122.523438 552.710938 123.015625 C 551.980469 123.503906 551.207031 123.917969 550.394531 124.253906 C 549.578125 124.589844 548.738281 124.847656 547.875 125.019531 C 547.011719 125.191406 546.140625 125.277344 545.257812 125.277344 C 544.378906 125.277344 543.503906 125.191406 542.640625 125.019531 C 541.777344 124.84375 540.9375 124.589844 540.125 124.253906 C 539.308594 123.917969 538.539062 123.503906 537.804688 123.015625 C 537.070312 122.523438 536.394531 121.96875 535.773438 121.34375 C 535.148438 120.722656 534.59375 120.042969 534.101562 119.3125 C 533.613281 118.578125 533.199219 117.804688 532.863281 116.992188 C 532.527344 116.175781 532.269531 115.339844 532.097656 114.472656 C 531.925781 113.609375 531.839844 112.738281 531.84375 111.855469 L 531.84375 70.113281 C 531.839844 69.414062 531.804688 68.722656 531.734375 68.03125 C 531.664062 67.335938 531.5625 66.652344 531.425781 65.96875 C 531.289062 65.285156 531.117188 64.613281 530.914062 63.949219 C 530.710938 63.28125 530.476562 62.628906 530.210938 61.988281 C 529.941406 61.34375 529.644531 60.714844 529.316406 60.101562 C 528.988281 59.492188 528.628906 58.894531 528.242188 58.316406 C 527.855469 57.738281 527.441406 57.179688 527 56.644531 C 526.558594 56.105469 526.089844 55.59375 525.601562 55.101562 C 525.109375 54.609375 524.59375 54.140625 524.054688 53.703125 C 523.515625 53.261719 522.960938 52.847656 522.382812 52.460938 C 521.804688 52.074219 521.207031 51.714844 520.59375 51.386719 C 519.980469 51.058594 519.351562 50.761719 518.710938 50.496094 C 518.066406 50.230469 517.414062 49.996094 516.75 49.792969 C 516.082031 49.589844 515.410156 49.421875 514.726562 49.285156 C 514.046875 49.148438 513.359375 49.046875 512.667969 48.976562 C 511.972656 48.910156 511.28125 48.875 510.585938 48.871094 L 441.246094 48.871094 C 440.550781 48.875 439.855469 48.910156 439.164062 48.976562 C 438.46875 49.046875 437.78125 49.148438 437.101562 49.285156 C 436.417969 49.421875 435.742188 49.59375 435.078125 49.792969 C 434.410156 49.996094 433.757812 50.230469 433.113281 50.5 C 432.472656 50.765625 431.84375 51.0625 431.230469 51.390625 C 430.617188 51.71875 430.019531 52.078125 429.441406 52.464844 C 428.863281 52.851562 428.304688 53.265625 427.769531 53.707031 C 427.230469 54.148438 426.714844 54.617188 426.222656 55.109375 C 425.730469 55.601562 425.265625 56.117188 424.820312 56.652344 C 424.378906 57.191406 423.964844 57.75 423.578125 58.328125 C 423.191406 58.90625 422.835938 59.503906 422.507812 60.117188 C 422.179688 60.730469 421.882812 61.359375 421.613281 62 C 421.347656 62.644531 421.113281 63.300781 420.910156 63.964844 C 420.707031 64.628906 420.539062 65.304688 420.402344 65.988281 C 420.265625 66.671875 420.164062 67.359375 420.09375 68.050781 C 420.023438 68.742188 419.988281 69.4375 419.988281 70.132812 L 419.988281 139.484375 C 419.988281 139.777344 419.988281 140.066406 419.988281 140.347656 C 419.988281 140.632812 419.988281 140.921875 419.988281 141.210938 C 419.988281 141.90625 420.023438 142.601562 420.09375 143.292969 C 420.164062 143.988281 420.265625 144.675781 420.402344 145.359375 C 420.539062 146.039062 420.707031 146.714844 420.910156 147.378906 C 421.113281 148.046875 421.347656 148.699219 421.613281 149.34375 C 421.882812 149.984375 422.179688 150.613281 422.507812 151.226562 C 422.835938 151.84375 423.191406 152.4375 423.578125 153.015625 C 423.964844 153.59375 424.378906 154.152344 424.820312 154.691406 C 425.265625 155.230469 425.730469 155.746094 426.222656 156.238281 C 426.714844 156.730469 427.230469 157.195312 427.769531 157.636719 C 428.304688 158.078125 428.863281 158.492188 429.441406 158.878906 C 430.019531 159.265625 430.617188 159.625 431.230469 159.953125 C 431.84375 160.28125 432.472656 160.578125 433.113281 160.847656 C 433.757812 161.113281 434.410156 161.347656 435.078125 161.550781 C 435.742188 161.753906 436.417969 161.921875 437.101562 162.058594 C 437.78125 162.195312 438.46875 162.296875 439.164062 162.367188 C 439.855469 162.4375 440.550781 162.472656 441.246094 162.472656 L 480.820312 162.472656 C 481.703125 162.472656 482.574219 162.558594 483.4375 162.730469 C 484.304688 162.902344 485.140625 163.15625 485.957031 163.492188 C 486.769531 163.832031 487.542969 164.246094 488.273438 164.734375 C 489.007812 165.222656 489.683594 165.78125 490.308594 166.402344 C 490.929688 167.027344 491.488281 167.703125 491.976562 168.4375 C 492.464844 169.167969 492.878906 169.941406 493.21875 170.757812 C 493.554688 171.570312 493.808594 172.410156 493.980469 173.273438 C 494.152344 174.136719 494.238281 175.011719 494.238281 175.890625 C 494.238281 176.773438 494.152344 177.644531 493.980469 178.507812 C 493.808594 179.375 493.554688 180.214844 493.21875 181.027344 C 492.878906 181.839844 492.464844 182.613281 491.976562 183.347656 C 491.488281 184.078125 490.929688 184.757812 490.308594 185.378906 C 489.683594 186.003906 489.007812 186.558594 488.273438 187.050781 C 487.542969 187.539062 486.769531 187.953125 485.957031 188.289062 C 485.140625 188.625 484.304688 188.882812 483.4375 189.054688 C 482.574219 189.226562 481.703125 189.3125 480.820312 189.3125 L 441.246094 189.3125 C 439.671875 189.308594 438.101562 189.230469 436.53125 189.074219 C 434.964844 188.917969 433.410156 188.6875 431.867188 188.378906 C 430.324219 188.070312 428.796875 187.6875 427.289062 187.226562 C 425.785156 186.769531 424.304688 186.238281 422.847656 185.636719 C 421.394531 185.03125 419.972656 184.359375 418.585938 183.617188 C 417.195312 182.875 415.847656 182.0625 414.539062 181.1875 C 413.230469 180.3125 411.96875 179.375 410.75 178.378906 C 409.535156 177.378906 408.367188 176.320312 407.253906 175.207031 C 406.140625 174.09375 405.085938 172.929688 404.085938 171.710938 C 403.085938 170.496094 402.148438 169.230469 401.273438 167.921875 C 400.398438 166.613281 399.589844 165.265625 398.847656 163.875 C 398.105469 162.488281 397.433594 161.066406 396.828125 159.609375 C 396.226562 158.15625 395.695312 156.675781 395.238281 155.167969 C 394.777344 153.660156 394.394531 152.136719 394.085938 150.59375 C 393.777344 149.046875 393.546875 147.492188 393.390625 145.925781 C 393.234375 144.359375 393.15625 142.785156 393.15625 141.210938 C 393.15625 140.921875 393.15625 140.632812 393.15625 140.347656 C 393.15625 140.066406 393.15625 139.777344 393.15625 139.484375 L 393.15625 70.113281 C 393.15625 68.535156 393.234375 66.964844 393.394531 65.398438 C 393.550781 63.832031 393.78125 62.277344 394.089844 60.734375 C 394.398438 59.191406 394.785156 57.664062 395.242188 56.160156 C 395.699219 54.652344 396.230469 53.171875 396.835938 51.71875 C 397.4375 50.265625 398.113281 48.84375 398.855469 47.457031 C 399.597656 46.066406 400.40625 44.71875 401.28125 43.410156 C 402.15625 42.101562 403.09375 40.839844 404.09375 39.625 C 405.09375 38.40625 406.148438 37.242188 407.261719 36.128906 C 408.375 35.015625 409.539062 33.960938 410.757812 32.960938 C 411.972656 31.960938 413.238281 31.027344 414.546875 30.152344 C 415.855469 29.277344 417.203125 28.46875 418.589844 27.726562 C 419.980469 26.984375 421.402344 26.308594 422.855469 25.707031 C 424.308594 25.105469 425.789062 24.574219 427.292969 24.117188 C 428.800781 23.65625 430.324219 23.273438 431.871094 22.964844 C 433.414062 22.65625 434.96875 22.425781 436.535156 22.269531 C 438.101562 22.113281 439.671875 22.035156 441.246094 22.035156 L 510.585938 22.035156 C 512.160156 22.035156 513.730469 22.113281 515.296875 22.269531 C 516.863281 22.425781 518.417969 22.660156 519.960938 22.96875 C 521.503906 23.277344 523.027344 23.660156 524.535156 24.117188 C 526.039062 24.574219 527.519531 25.105469 528.972656 25.707031 C 530.429688 26.3125 531.847656 26.984375 533.238281 27.726562 C 534.625 28.46875 535.972656 29.277344 537.28125 30.152344 C 538.589844 31.027344 539.855469 31.964844 541.070312 32.964844 C 542.289062 33.960938 543.453125 35.019531 544.566406 36.132812 C 545.679688 37.246094 546.734375 38.410156 547.734375 39.625 C 548.734375 40.84375 549.671875 42.105469 550.546875 43.414062 C 551.421875 44.722656 552.230469 46.070312 552.972656 47.457031 C 553.714844 48.84375 554.390625 50.265625 554.992188 51.71875 C 555.597656 53.175781 556.128906 54.652344 556.585938 56.160156 C 557.046875 57.667969 557.429688 59.191406 557.738281 60.734375 C 558.046875 62.277344 558.28125 63.832031 558.4375 65.398438 C 558.59375 66.964844 558.671875 68.535156 558.675781 70.113281 Z M 558.675781 70.113281 " fill-opacity="1" fill-rule="nonzero"></path><path fill="#db790c" d="M 827.523438 91.8125 C 828.402344 91.8125 829.273438 91.898438 830.140625 92.070312 C 831.003906 92.242188 831.84375 92.5 832.65625 92.835938 C 833.46875 93.171875 834.242188 93.585938 834.976562 94.074219 C 835.707031 94.566406 836.386719 95.121094 837.007812 95.746094 C 837.632812 96.367188 838.1875 97.046875 838.675781 97.777344 C 839.167969 98.511719 839.578125 99.285156 839.917969 100.097656 C 840.253906 100.914062 840.507812 101.75 840.679688 102.617188 C 840.851562 103.480469 840.9375 104.351562 840.9375 105.234375 C 840.9375 106.113281 840.851562 106.988281 840.679688 107.851562 C 840.507812 108.714844 840.253906 109.554688 839.917969 110.367188 C 839.578125 111.183594 839.167969 111.957031 838.675781 112.6875 C 838.1875 113.421875 837.632812 114.097656 837.007812 114.722656 C 836.386719 115.34375 835.707031 115.902344 834.976562 116.390625 C 834.242188 116.878906 833.46875 117.292969 832.65625 117.632812 C 831.84375 117.96875 831.003906 118.222656 830.140625 118.394531 C 829.273438 118.566406 828.402344 118.652344 827.523438 118.652344 L 793.195312 118.652344 C 792.316406 118.652344 791.441406 118.566406 790.578125 118.394531 C 789.714844 118.222656 788.875 117.96875 788.0625 117.632812 C 787.246094 117.292969 786.472656 116.878906 785.742188 116.390625 C 785.007812 115.902344 784.332031 115.34375 783.707031 114.722656 C 783.085938 114.097656 782.53125 113.421875 782.039062 112.6875 C 781.550781 111.957031 781.136719 111.183594 780.800781 110.367188 C 780.464844 109.554688 780.207031 108.714844 780.035156 107.851562 C 779.863281 106.988281 779.777344 106.113281 779.777344 105.234375 C 779.777344 104.351562 779.863281 103.480469 780.035156 102.617188 C 780.207031 101.75 780.464844 100.914062 780.800781 100.097656 C 781.136719 99.285156 781.550781 98.511719 782.039062 97.777344 C 782.53125 97.046875 783.085938 96.367188 783.707031 95.746094 C 784.332031 95.121094 785.007812 94.566406 785.742188 94.074219 C 786.472656 93.585938 787.246094 93.171875 788.0625 92.835938 C 788.875 92.5 789.714844 92.242188 790.578125 92.070312 C 791.441406 91.898438 792.316406 91.8125 793.195312 91.8125 Z M 827.523438 91.8125 " fill-opacity="1" fill-rule="nonzero"></path><path fill="#db790c" d="M 847.175781 49.0625 L 778.351562 49.0625 C 777.65625 49.0625 776.960938 49.097656 776.269531 49.164062 C 775.574219 49.234375 774.886719 49.335938 774.207031 49.472656 C 773.523438 49.609375 772.847656 49.777344 772.183594 49.980469 C 771.519531 50.183594 770.863281 50.417969 770.222656 50.683594 C 769.578125 50.953125 768.949219 51.25 768.335938 51.578125 C 767.722656 51.90625 767.125 52.261719 766.546875 52.648438 C 765.96875 53.035156 765.410156 53.449219 764.875 53.890625 C 764.335938 54.332031 763.820312 54.800781 763.328125 55.292969 C 762.835938 55.785156 762.371094 56.300781 761.929688 56.835938 C 761.488281 57.375 761.070312 57.933594 760.683594 58.511719 C 760.296875 59.089844 759.941406 59.6875 759.613281 60.300781 C 759.285156 60.914062 758.988281 61.542969 758.71875 62.183594 C 758.453125 62.828125 758.21875 63.480469 758.015625 64.148438 C 757.8125 64.8125 757.644531 65.488281 757.507812 66.167969 C 757.371094 66.851562 757.269531 67.539062 757.199219 68.230469 C 757.128906 68.925781 757.09375 69.617188 757.09375 70.3125 L 757.09375 70.378906 L 756.765625 139.738281 C 756.765625 140.007812 756.765625 140.269531 756.765625 140.53125 C 756.765625 140.792969 756.765625 141.109375 756.765625 141.402344 C 756.769531 142.097656 756.804688 142.789062 756.871094 143.484375 C 756.941406 144.175781 757.042969 144.863281 757.179688 145.546875 C 757.316406 146.230469 757.488281 146.902344 757.6875 147.570312 C 757.890625 148.234375 758.125 148.890625 758.394531 149.53125 C 758.660156 150.175781 758.957031 150.804688 759.285156 151.417969 C 759.613281 152.03125 759.972656 152.625 760.359375 153.207031 C 760.746094 153.785156 761.160156 154.34375 761.601562 154.878906 C 762.042969 155.417969 762.507812 155.933594 763 156.425781 C 763.492188 156.917969 764.007812 157.382812 764.546875 157.828125 C 765.085938 158.269531 765.644531 158.683594 766.222656 159.070312 C 766.800781 159.457031 767.394531 159.8125 768.007812 160.140625 C 768.621094 160.46875 769.25 160.769531 769.894531 161.035156 C 770.535156 161.300781 771.191406 161.535156 771.855469 161.738281 C 772.523438 161.941406 773.195312 162.109375 773.878906 162.246094 C 774.5625 162.382812 775.25 162.488281 775.941406 162.554688 C 776.632812 162.625 777.328125 162.660156 778.023438 162.660156 L 847.175781 162.660156 C 848.054688 162.660156 848.929688 162.746094 849.792969 162.917969 C 850.65625 163.089844 851.496094 163.34375 852.308594 163.683594 C 853.125 164.019531 853.898438 164.433594 854.628906 164.921875 C 855.363281 165.410156 856.039062 165.96875 856.664062 166.589844 C 857.285156 167.214844 857.839844 167.890625 858.332031 168.625 C 858.820312 169.359375 859.234375 170.128906 859.570312 170.945312 C 859.910156 171.757812 860.164062 172.597656 860.335938 173.460938 C 860.507812 174.328125 860.59375 175.199219 860.59375 176.082031 C 860.59375 176.960938 860.507812 177.835938 860.335938 178.699219 C 860.164062 179.5625 859.910156 180.402344 859.570312 181.214844 C 859.234375 182.03125 858.820312 182.804688 858.332031 183.535156 C 857.839844 184.269531 857.285156 184.945312 856.664062 185.570312 C 856.039062 186.191406 855.363281 186.75 854.628906 187.238281 C 853.898438 187.726562 853.125 188.140625 852.308594 188.476562 C 851.496094 188.816406 850.65625 189.070312 849.792969 189.242188 C 848.929688 189.414062 848.054688 189.5 847.175781 189.5 L 778.023438 189.5 C 776.449219 189.496094 774.878906 189.417969 773.3125 189.261719 C 771.746094 189.105469 770.191406 188.875 768.644531 188.566406 C 767.101562 188.257812 765.578125 187.875 764.070312 187.414062 C 762.5625 186.957031 761.082031 186.425781 759.628906 185.824219 C 758.175781 185.21875 756.753906 184.546875 755.367188 183.804688 C 753.976562 183.058594 752.628906 182.25 751.320312 181.375 C 750.011719 180.5 748.75 179.5625 747.53125 178.5625 C 746.3125 177.566406 745.148438 176.507812 744.035156 175.394531 C 742.921875 174.28125 741.867188 173.117188 740.867188 171.898438 C 739.867188 170.679688 738.929688 169.417969 738.054688 168.109375 C 737.179688 166.800781 736.371094 165.453125 735.628906 164.0625 C 734.886719 162.675781 734.210938 161.253906 733.609375 159.796875 C 733.007812 158.34375 732.476562 156.863281 732.015625 155.355469 C 731.558594 153.851562 731.175781 152.324219 730.867188 150.78125 C 730.558594 149.234375 730.328125 147.679688 730.171875 146.113281 C 730.015625 144.546875 729.933594 142.976562 729.933594 141.402344 C 729.933594 141.109375 729.933594 140.828125 729.933594 140.542969 C 729.933594 140.261719 729.933594 139.921875 729.933594 139.609375 L 730.257812 70.320312 L 730.257812 70.21875 C 730.265625 68.667969 730.34375 67.121094 730.5 65.578125 C 730.652344 64.035156 730.882812 62.5 731.183594 60.980469 C 731.488281 59.457031 731.863281 57.953125 732.3125 56.46875 C 732.757812 54.984375 733.277344 53.523438 733.867188 52.089844 C 734.457031 50.652344 735.113281 49.25 735.835938 47.878906 C 736.5625 46.507812 737.351562 45.171875 738.207031 43.878906 C 739.058594 42.582031 739.972656 41.332031 740.949219 40.125 C 741.921875 38.917969 742.953125 37.757812 744.039062 36.652344 C 745.125 35.542969 746.261719 34.492188 747.449219 33.496094 C 748.640625 32.496094 749.871094 31.558594 751.152344 30.679688 C 752.429688 29.804688 753.75 28.988281 755.105469 28.238281 C 756.464844 27.488281 757.855469 26.804688 759.277344 26.1875 C 760.699219 25.570312 762.152344 25.023438 763.628906 24.546875 C 765.105469 24.074219 766.597656 23.667969 768.113281 23.335938 C 769.628906 23.003906 771.15625 22.75 772.699219 22.5625 C 774.238281 22.378906 775.785156 22.273438 777.335938 22.238281 L 847.175781 22.238281 C 848.054688 22.238281 848.929688 22.324219 849.792969 22.496094 C 850.65625 22.667969 851.496094 22.921875 852.308594 23.257812 C 853.125 23.597656 853.898438 24.007812 854.628906 24.5 C 855.363281 24.988281 856.039062 25.542969 856.664062 26.167969 C 857.285156 26.789062 857.839844 27.46875 858.332031 28.199219 C 858.820312 28.933594 859.234375 29.707031 859.570312 30.519531 C 859.90625 31.335938 860.164062 32.175781 860.335938 33.039062 C 860.507812 33.902344 860.59375 34.773438 860.59375 35.65625 C 860.59375 36.539062 860.507812 37.410156 860.335938 38.273438 C 860.164062 39.136719 859.90625 39.976562 859.570312 40.792969 C 859.234375 41.605469 858.820312 42.378906 858.332031 43.113281 C 857.839844 43.84375 857.285156 44.523438 856.664062 45.144531 C 856.039062 45.769531 855.363281 46.324219 854.628906 46.8125 C 853.898438 47.304688 853.125 47.71875 852.308594 48.054688 C 851.496094 48.390625 850.65625 48.644531 849.792969 48.816406 C 848.929688 48.988281 848.054688 49.074219 847.175781 49.074219 Z M 847.175781 49.0625 " fill-opacity="1" fill-rule="nonzero"></path><path fill="#db790c" d="M 716.050781 176.082031 C 716.050781 176.960938 715.964844 177.832031 715.792969 178.699219 C 715.621094 179.5625 715.367188 180.402344 715.03125 181.214844 C 714.695312 182.03125 714.28125 182.804688 713.792969 183.535156 C 713.300781 184.269531 712.746094 184.945312 712.121094 185.570312 C 711.5 186.191406 710.820312 186.75 710.089844 187.238281 C 709.355469 187.726562 708.582031 188.140625 707.769531 188.476562 C 706.957031 188.816406 706.117188 189.070312 705.253906 189.242188 C 704.390625 189.414062 703.515625 189.5 702.636719 189.5 L 636.640625 189.5 C 635.066406 189.496094 633.496094 189.414062 631.929688 189.257812 C 630.363281 189.101562 628.808594 188.867188 627.265625 188.558594 C 625.722656 188.25 624.199219 187.863281 622.695312 187.40625 C 621.191406 186.945312 619.710938 186.414062 618.257812 185.808594 C 616.804688 185.207031 615.382812 184.53125 613.996094 183.789062 C 612.609375 183.046875 611.261719 182.234375 609.957031 181.359375 C 608.648438 180.484375 607.386719 179.546875 606.171875 178.546875 C 604.953125 177.550781 603.789062 176.492188 602.679688 175.378906 C 601.566406 174.265625 600.511719 173.101562 599.511719 171.882812 C 598.515625 170.667969 597.578125 169.402344 596.707031 168.09375 C 595.832031 166.785156 595.023438 165.4375 594.28125 164.050781 C 593.539062 162.664062 592.867188 161.242188 592.265625 159.789062 C 591.660156 158.335938 591.128906 156.855469 590.671875 155.347656 C 590.214844 153.84375 589.832031 152.316406 589.523438 150.773438 C 589.214844 149.230469 588.984375 147.675781 588.828125 146.109375 C 588.671875 144.542969 588.59375 142.972656 588.589844 141.402344 C 588.589844 141.125 588.589844 140.84375 588.589844 140.574219 C 588.589844 140.304688 588.589844 140.023438 588.589844 139.738281 L 588.589844 33.980469 C 588.589844 33.101562 588.675781 32.226562 588.847656 31.363281 C 589.019531 30.5 589.277344 29.660156 589.613281 28.84375 C 589.949219 28.03125 590.363281 27.257812 590.851562 26.527344 C 591.34375 25.792969 591.898438 25.113281 592.519531 24.492188 C 593.144531 23.867188 593.820312 23.3125 594.554688 22.824219 C 595.285156 22.332031 596.058594 21.921875 596.875 21.582031 C 597.6875 21.246094 598.527344 20.992188 599.390625 20.820312 C 600.253906 20.648438 601.128906 20.5625 602.007812 20.5625 C 602.890625 20.5625 603.761719 20.648438 604.625 20.820312 C 605.488281 20.992188 606.328125 21.246094 607.144531 21.582031 C 607.957031 21.921875 608.730469 22.332031 609.460938 22.824219 C 610.195312 23.3125 610.871094 23.867188 611.496094 24.492188 C 612.117188 25.113281 612.675781 25.792969 613.164062 26.523438 C 613.652344 27.257812 614.066406 28.03125 614.402344 28.84375 C 614.742188 29.660156 614.996094 30.5 615.167969 31.363281 C 615.339844 32.226562 615.425781 33.101562 615.425781 33.980469 L 615.425781 139.738281 C 615.425781 140.023438 615.425781 140.296875 615.425781 140.574219 C 615.425781 140.847656 615.425781 141.125 615.425781 141.402344 C 615.425781 142.097656 615.460938 142.789062 615.53125 143.484375 C 615.597656 144.175781 615.703125 144.863281 615.839844 145.546875 C 615.976562 146.230469 616.144531 146.902344 616.347656 147.570312 C 616.550781 148.234375 616.785156 148.890625 617.050781 149.53125 C 617.316406 150.175781 617.617188 150.804688 617.945312 151.417969 C 618.273438 152.03125 618.628906 152.625 619.015625 153.207031 C 619.402344 153.785156 619.816406 154.34375 620.257812 154.878906 C 620.699219 155.417969 621.167969 155.933594 621.660156 156.425781 C 622.152344 156.917969 622.667969 157.382812 623.203125 157.824219 C 623.742188 158.269531 624.300781 158.683594 624.878906 159.070312 C 625.457031 159.457031 626.054688 159.8125 626.667969 160.140625 C 627.28125 160.46875 627.910156 160.769531 628.550781 161.035156 C 629.195312 161.300781 629.847656 161.535156 630.515625 161.738281 C 631.179688 161.941406 631.855469 162.109375 632.539062 162.246094 C 633.21875 162.382812 633.90625 162.488281 634.601562 162.554688 C 635.292969 162.625 635.988281 162.660156 636.683594 162.660156 L 702.679688 162.660156 C 703.558594 162.664062 704.429688 162.753906 705.289062 162.925781 C 706.152344 163.101562 706.988281 163.355469 707.800781 163.695312 C 708.613281 164.035156 709.382812 164.449219 710.113281 164.9375 C 710.84375 165.425781 711.515625 165.984375 712.136719 166.605469 C 712.757812 167.230469 713.3125 167.90625 713.800781 168.636719 C 714.289062 169.371094 714.699219 170.140625 715.035156 170.953125 C 715.371094 171.765625 715.625 172.605469 715.796875 173.46875 C 715.96875 174.328125 716.050781 175.199219 716.050781 176.082031 Z M 716.050781 176.082031 " fill-opacity="1" fill-rule="nonzero"></path><path fill="#db790c" d="M 554.746094 166.382812 C 555.382812 167 555.953125 167.679688 556.457031 168.410156 C 556.960938 169.144531 557.390625 169.917969 557.738281 170.738281 C 558.089844 171.554688 558.355469 172.398438 558.535156 173.269531 C 558.71875 174.140625 558.8125 175.023438 558.820312 175.910156 C 558.824219 176.800781 558.746094 177.683594 558.578125 178.558594 C 558.40625 179.429688 558.15625 180.277344 557.816406 181.101562 C 557.480469 181.925781 557.066406 182.707031 556.574219 183.449219 C 556.078125 184.1875 555.519531 184.875 554.890625 185.503906 C 554.261719 186.132812 553.574219 186.691406 552.835938 187.183594 C 552.09375 187.679688 551.3125 188.09375 550.488281 188.429688 C 549.667969 188.769531 548.820312 189.019531 547.945312 189.191406 C 547.070312 189.359375 546.191406 189.4375 545.300781 189.433594 C 544.410156 189.425781 543.53125 189.332031 542.660156 189.148438 C 541.789062 188.96875 540.945312 188.703125 540.128906 188.351562 C 539.308594 188.003906 538.535156 187.574219 537.800781 187.070312 C 537.066406 186.566406 536.390625 185.996094 535.773438 185.359375 L 490.511719 140.09375 C 489.886719 139.472656 489.332031 138.792969 488.84375 138.058594 C 488.355469 137.328125 487.941406 136.554688 487.605469 135.738281 C 487.269531 134.925781 487.015625 134.085938 486.84375 133.222656 C 486.671875 132.359375 486.585938 131.488281 486.585938 130.605469 C 486.585938 129.722656 486.671875 128.851562 486.847656 127.988281 C 487.019531 127.125 487.273438 126.285156 487.609375 125.472656 C 487.945312 124.65625 488.359375 123.882812 488.847656 123.152344 C 489.339844 122.417969 489.894531 121.742188 490.519531 121.121094 C 491.140625 120.496094 491.816406 119.941406 492.550781 119.449219 C 493.28125 118.960938 494.054688 118.546875 494.871094 118.210938 C 495.683594 117.875 496.523438 117.617188 497.386719 117.445312 C 498.25 117.273438 499.121094 117.1875 500.003906 117.1875 C 500.882812 117.1875 501.753906 117.273438 502.621094 117.445312 C 503.484375 117.617188 504.320312 117.871094 505.136719 118.207031 C 505.949219 118.542969 506.722656 118.957031 507.457031 119.445312 C 508.1875 119.933594 508.867188 120.488281 509.488281 121.113281 Z M 554.746094 166.382812 " fill-opacity="1" fill-rule="nonzero"></path><path fill="#db790c" d="M 183.34375 142.445312 C 183.394531 142.929688 183.421875 143.410156 183.421875 143.894531 C 183.402344 145.457031 183.308594 147.015625 183.136719 148.570312 C 182.964844 150.125 182.71875 151.664062 182.398438 153.195312 C 182.078125 154.726562 181.683594 156.234375 181.214844 157.726562 C 180.746094 159.21875 180.207031 160.683594 179.59375 162.121094 C 178.984375 163.558594 178.304688 164.964844 177.554688 166.335938 C 176.808594 167.707031 175.992188 169.039062 175.117188 170.332031 C 174.238281 171.625 173.296875 172.875 172.296875 174.074219 C 171.300781 175.277344 170.242188 176.425781 169.132812 177.523438 C 168.019531 178.621094 166.855469 179.664062 165.644531 180.648438 C 164.429688 181.632812 163.171875 182.558594 161.867188 183.421875 C 160.566406 184.28125 159.222656 185.082031 157.84375 185.8125 C 156.460938 186.542969 155.046875 187.207031 153.601562 187.800781 C 152.15625 188.394531 150.6875 188.914062 149.191406 189.367188 C 147.691406 189.816406 146.179688 190.191406 144.644531 190.496094 C 143.113281 190.796875 141.566406 191.023438 140.011719 191.175781 C 138.457031 191.328125 136.898438 191.40625 135.335938 191.40625 C 133.773438 191.40625 132.214844 191.328125 130.660156 191.175781 C 129.101562 191.023438 127.558594 190.796875 126.027344 190.496094 C 124.492188 190.191406 122.976562 189.816406 121.480469 189.367188 C 119.984375 188.914062 118.515625 188.394531 117.070312 187.800781 C 115.625 187.207031 114.210938 186.542969 112.828125 185.8125 C 111.449219 185.082031 110.105469 184.28125 108.800781 183.421875 C 107.5 182.558594 106.242188 181.632812 105.027344 180.648438 C 103.8125 179.664062 102.652344 178.621094 101.539062 177.523438 C 100.429688 176.425781 99.371094 175.277344 98.371094 174.074219 C 97.375 172.875 96.433594 171.625 95.554688 170.332031 C 94.679688 169.039062 93.863281 167.707031 93.117188 166.335938 C 92.367188 164.964844 91.6875 163.558594 91.078125 162.121094 C 90.464844 160.683594 89.925781 159.21875 89.457031 157.726562 C 88.988281 156.234375 88.59375 154.726562 88.273438 153.195312 C 87.953125 151.664062 87.707031 150.125 87.535156 148.570312 C 87.363281 147.015625 87.269531 145.457031 87.25 143.894531 C 87.25 143.621094 87.25 143.335938 87.25 143.070312 C 87.25 142.800781 87.25 142.515625 87.25 142.234375 L 87.25 68.660156 C 87.25 68.398438 87.25 68.136719 87.25 67.878906 C 87.222656 67.191406 87.164062 66.503906 87.074219 65.824219 C 86.980469 65.140625 86.855469 64.464844 86.699219 63.796875 C 86.542969 63.128906 86.351562 62.464844 86.128906 61.816406 C 85.910156 61.164062 85.65625 60.527344 85.371094 59.898438 C 85.089844 59.273438 84.777344 58.660156 84.433594 58.066406 C 84.089844 57.46875 83.71875 56.890625 83.320312 56.328125 C 82.921875 55.769531 82.496094 55.230469 82.042969 54.710938 C 81.59375 54.191406 81.117188 53.695312 80.617188 53.222656 C 80.117188 52.75 79.597656 52.304688 79.054688 51.882812 C 78.511719 51.460938 77.949219 51.0625 77.367188 50.695312 C 76.785156 50.328125 76.1875 49.992188 75.574219 49.679688 C 74.960938 49.371094 74.332031 49.09375 73.691406 48.84375 C 73.050781 48.597656 72.398438 48.378906 71.734375 48.195312 C 71.074219 48.007812 70.402344 47.855469 69.726562 47.734375 C 69.050781 47.617188 68.367188 47.527344 67.683594 47.472656 C 66.996094 47.421875 66.308594 47.398438 65.621094 47.414062 C 64.933594 47.425781 64.25 47.472656 63.566406 47.550781 C 62.882812 47.628906 62.203125 47.742188 61.53125 47.886719 C 60.859375 48.03125 60.195312 48.210938 59.542969 48.417969 C 58.886719 48.628906 58.242188 48.871094 57.609375 49.140625 C 56.980469 49.414062 56.363281 49.714844 55.761719 50.046875 C 55.15625 50.378906 54.574219 50.738281 54.003906 51.128906 C 53.4375 51.515625 52.890625 51.933594 52.363281 52.375 C 51.835938 52.816406 51.332031 53.28125 50.851562 53.773438 C 50.367188 54.265625 49.910156 54.777344 49.480469 55.3125 C 49.046875 55.847656 48.640625 56.402344 48.265625 56.976562 C 47.886719 57.550781 47.535156 58.144531 47.214844 58.75 C 46.894531 59.359375 46.605469 59.980469 46.34375 60.617188 C 46.085938 61.253906 45.855469 61.902344 45.65625 62.5625 C 45.460938 63.222656 45.296875 63.886719 45.164062 64.5625 C 45.03125 65.238281 44.929688 65.917969 44.863281 66.601562 C 44.796875 67.285156 44.765625 67.972656 44.765625 68.660156 C 44.765625 68.945312 44.765625 69.21875 44.765625 69.496094 C 44.765625 69.769531 44.765625 70.046875 44.765625 70.320312 L 44.765625 178.566406 C 44.765625 179.449219 44.675781 180.320312 44.503906 181.183594 C 44.332031 182.050781 44.078125 182.886719 43.742188 183.703125 C 43.402344 184.515625 42.988281 185.289062 42.5 186.019531 C 42.011719 186.753906 41.453125 187.429688 40.832031 188.050781 C 40.210938 188.675781 39.53125 189.230469 38.800781 189.71875 C 38.066406 190.210938 37.292969 190.621094 36.480469 190.960938 C 35.667969 191.296875 34.828125 191.550781 33.964844 191.722656 C 33.101562 191.894531 32.226562 191.980469 31.347656 191.980469 C 30.464844 191.980469 29.59375 191.894531 28.730469 191.722656 C 27.867188 191.550781 27.027344 191.296875 26.214844 190.960938 C 25.398438 190.625 24.625 190.210938 23.894531 189.71875 C 23.160156 189.230469 22.484375 188.675781 21.859375 188.050781 C 21.238281 187.429688 20.683594 186.75 20.191406 186.015625 C 19.703125 185.285156 19.292969 184.511719 18.953125 183.695312 C 18.617188 182.882812 18.363281 182.042969 18.191406 181.179688 C 18.023438 180.316406 17.9375 179.441406 17.9375 178.5625 L 17.9375 70.3125 C 17.9375 70.039062 17.9375 69.761719 17.9375 69.488281 C 17.9375 69.210938 17.9375 68.9375 17.9375 68.660156 C 17.917969 67.074219 17.976562 65.488281 18.113281 63.90625 C 18.253906 62.324219 18.46875 60.753906 18.761719 59.195312 C 19.054688 57.632812 19.421875 56.089844 19.867188 54.566406 C 20.3125 53.042969 20.832031 51.546875 21.425781 50.074219 C 22.019531 48.601562 22.6875 47.160156 23.421875 45.753906 C 24.160156 44.347656 24.964844 42.980469 25.835938 41.65625 C 26.707031 40.328125 27.640625 39.046875 28.640625 37.8125 C 29.640625 36.578125 30.695312 35.398438 31.8125 34.269531 C 32.925781 33.136719 34.09375 32.066406 35.316406 31.054688 C 36.539062 30.039062 37.808594 29.089844 39.125 28.199219 C 40.4375 27.3125 41.796875 26.492188 43.191406 25.738281 C 44.589844 24.984375 46.019531 24.300781 47.484375 23.6875 C 48.949219 23.078125 50.441406 22.539062 51.957031 22.074219 C 53.476562 21.609375 55.015625 21.222656 56.570312 20.910156 C 58.125 20.597656 59.695312 20.363281 61.273438 20.207031 C 62.855469 20.050781 64.4375 19.96875 66.023438 19.96875 C 67.613281 19.96875 69.195312 20.050781 70.773438 20.207031 C 72.355469 20.363281 73.921875 20.597656 75.480469 20.910156 C 77.035156 21.222656 78.574219 21.609375 80.089844 22.074219 C 81.609375 22.539062 83.101562 23.078125 84.566406 23.6875 C 86.027344 24.300781 87.460938 24.984375 88.855469 25.738281 C 90.253906 26.492188 91.609375 27.3125 92.925781 28.199219 C 94.242188 29.089844 95.511719 30.039062 96.730469 31.054688 C 97.953125 32.066406 99.121094 33.136719 100.238281 34.269531 C 101.355469 35.398438 102.410156 36.578125 103.410156 37.8125 C 104.40625 39.046875 105.34375 40.328125 106.214844 41.65625 C 107.085938 42.980469 107.890625 44.347656 108.625 45.753906 C 109.363281 47.160156 110.027344 48.601562 110.621094 50.074219 C 111.214844 51.546875 111.734375 53.042969 112.179688 54.566406 C 112.628906 56.089844 112.996094 57.632812 113.289062 59.195312 C 113.582031 60.753906 113.796875 62.324219 113.933594 63.90625 C 114.070312 65.488281 114.132812 67.074219 114.113281 68.660156 C 114.113281 69.007812 114.113281 69.386719 114.066406 69.691406 L 114.066406 142.226562 C 114.066406 142.511719 114.066406 142.785156 114.066406 143.0625 C 114.066406 143.335938 114.066406 143.613281 114.066406 143.886719 C 114.082031 144.578125 114.125 145.261719 114.207031 145.945312 C 114.285156 146.628906 114.398438 147.308594 114.542969 147.980469 C 114.6875 148.652344 114.863281 149.316406 115.074219 149.972656 C 115.285156 150.628906 115.523438 151.269531 115.796875 151.902344 C 116.070312 152.535156 116.371094 153.152344 116.703125 153.753906 C 117.035156 154.359375 117.394531 154.941406 117.785156 155.511719 C 118.171875 156.078125 118.589844 156.625 119.03125 157.152344 C 119.472656 157.679688 119.9375 158.1875 120.429688 158.667969 C 120.921875 159.148438 121.433594 159.605469 121.96875 160.039062 C 122.503906 160.472656 123.058594 160.875 123.632812 161.253906 C 124.207031 161.632812 124.800781 161.984375 125.410156 162.304688 C 126.019531 162.625 126.640625 162.914062 127.277344 163.175781 C 127.914062 163.4375 128.5625 163.664062 129.222656 163.863281 C 129.878906 164.058594 130.546875 164.226562 131.222656 164.359375 C 131.898438 164.492188 132.578125 164.589844 133.261719 164.65625 C 133.945312 164.722656 134.632812 164.757812 135.320312 164.757812 C 136.007812 164.757812 136.695312 164.722656 137.378906 164.65625 C 138.066406 164.589844 138.746094 164.492188 139.421875 164.359375 C 140.09375 164.226562 140.761719 164.058594 141.421875 163.863281 C 142.082031 163.664062 142.726562 163.4375 143.363281 163.175781 C 144.003906 162.914062 144.625 162.625 145.234375 162.304688 C 145.84375 161.984375 146.433594 161.632812 147.007812 161.253906 C 147.582031 160.875 148.136719 160.472656 148.671875 160.039062 C 149.207031 159.605469 149.722656 159.148438 150.210938 158.667969 C 150.703125 158.1875 151.171875 157.679688 151.613281 157.152344 C 152.054688 156.625 152.46875 156.078125 152.859375 155.511719 C 153.246094 154.941406 153.609375 154.359375 153.9375 153.753906 C 154.269531 153.152344 154.574219 152.535156 154.84375 151.902344 C 155.117188 151.269531 155.359375 150.628906 155.566406 149.972656 C 155.777344 149.316406 155.953125 148.652344 156.101562 147.980469 C 156.246094 147.308594 156.355469 146.628906 156.4375 145.945312 C 156.515625 145.261719 156.5625 144.578125 156.574219 143.886719 C 156.574219 143.808594 156.574219 143.734375 156.574219 143.65625 C 156.519531 143.175781 156.492188 142.691406 156.496094 142.207031 L 156.496094 33.960938 C 156.496094 33.078125 156.582031 32.207031 156.753906 31.339844 C 156.925781 30.476562 157.179688 29.640625 157.519531 28.824219 C 157.855469 28.011719 158.269531 27.238281 158.757812 26.503906 C 159.246094 25.773438 159.804688 25.09375 160.425781 24.472656 C 161.050781 23.847656 161.726562 23.292969 162.460938 22.804688 C 163.191406 22.3125 163.964844 21.902344 164.777344 21.5625 C 165.59375 21.226562 166.429688 20.972656 167.292969 20.796875 C 168.160156 20.625 169.03125 20.539062 169.910156 20.539062 C 170.792969 20.539062 171.664062 20.625 172.527344 20.800781 C 173.394531 20.972656 174.230469 21.226562 175.046875 21.5625 C 175.859375 21.902344 176.632812 22.316406 177.363281 22.804688 C 178.097656 23.296875 178.773438 23.851562 179.398438 24.476562 C 180.019531 25.097656 180.574219 25.777344 181.0625 26.507812 C 181.554688 27.242188 181.964844 28.015625 182.300781 28.832031 C 182.640625 29.644531 182.894531 30.484375 183.066406 31.347656 C 183.234375 32.210938 183.320312 33.085938 183.320312 33.964844 L 183.320312 142.210938 C 183.351562 142.308594 183.351562 142.386719 183.34375 142.445312 Z M 183.34375 142.445312 " fill-opacity="1" fill-rule="nonzero"></path></svg>