<svg width="106" height="30" viewBox="0 0 106 30" fill="none" xmlns="http://www.w3.org/2000/svg">
<path fill-rule="evenodd" clip-rule="evenodd" d="M7.43276 0.779495C7.19691 0.779495 6.97072 0.873042 6.80394 1.03956L0 7.83288L13.6953 7.83286C14.1864 7.83286 14.5846 8.23039 14.5846 8.72076L14.5846 22.3947L21.3886 15.6014C21.5553 15.4349 21.649 15.209 21.649 14.9735V1.6674C21.649 1.17702 21.2508 0.779495 20.7597 0.779495H7.43276Z" fill="#1C1C1E"/>
<path fill-rule="evenodd" clip-rule="evenodd" d="M35.359 8.64123H32.4022V5.50314H35.359V0.779495H38.9802V5.50314H43.0667V8.64123H38.9802V17.4609C38.9802 18.1216 39.1132 18.5951 39.379 18.8813C39.6448 19.1456 40.0988 19.2777 40.7412 19.2777H43.4655V22.4158H40.0102C38.3934 22.4158 37.2084 22.0415 36.4554 21.2928C35.7245 20.544 35.359 19.3877 35.359 17.8243V8.64123ZM54.7931 5.50314V8.83943H53.1984C51.7143 8.83943 50.6403 9.3239 49.9758 10.2929C49.3112 11.2398 48.979 12.451 48.979 13.9264V22.4158H45.3911V5.50314H48.5804L48.979 8.04666C49.4663 7.25388 50.0976 6.63726 50.8728 6.19683C51.6479 5.73438 52.6889 5.50314 53.9957 5.50314H54.7931ZM55.9192 9.43402C55.2327 10.7333 54.8892 12.2528 54.8892 13.9925C54.8892 15.7102 55.2437 17.2187 55.9524 18.518C56.6833 19.8172 57.7022 20.8302 59.0089 21.5569C60.3378 22.2617 61.8881 22.614 63.6601 22.614C65.6977 22.614 67.392 22.0635 68.7432 20.9623C70.1163 19.8613 70.9581 18.4519 71.268 16.7342H67.6801C67.4364 17.6811 66.9381 18.4189 66.185 18.9474C65.4319 19.4539 64.5017 19.7072 63.3943 19.7072C61.9989 19.7072 60.8804 19.2777 60.0389 18.4189C59.1971 17.56 58.7321 16.3929 58.6434 14.9174V14.7192H71.4674C71.5338 14.2568 71.5671 13.8053 71.5671 13.3649C71.5449 11.7353 71.1683 10.3149 70.4375 9.1037C69.7288 7.8925 68.7432 6.95658 67.4807 6.29593C66.2403 5.63528 64.8008 5.30496 63.1618 5.30496C61.5449 5.30496 60.1053 5.66831 58.8428 6.39503C57.6025 7.09973 56.6279 8.11273 55.9192 9.43402ZM66.4175 9.23583C67.2592 9.9185 67.7576 10.8764 67.9126 12.1096H58.7763C58.9092 10.9205 59.3965 9.97355 60.2381 9.26885C61.1019 8.54215 62.1208 8.17878 63.2946 8.17878C64.557 8.17878 65.598 8.53113 66.4175 9.23583ZM72.9606 5.50314H86.8809V8.04666L77.3792 19.2777H87.3129V22.4158H72.562V19.8723L82.0637 8.64123H72.9606V5.50314ZM105.063 22.1184V5.50314H101.475V13.8934C101.475 15.6111 101.088 16.9544 100.312 17.9234C99.5593 18.8923 98.5071 19.3769 97.1562 19.3769C95.8494 19.3769 94.8638 18.9695 94.1992 18.1546C93.5348 17.3398 93.2026 16.1286 93.2026 14.521V5.50314H89.5814V14.8844C89.5814 17.549 90.2015 19.4869 91.4418 20.6982C92.7043 21.8874 94.3433 22.4819 96.3588 22.4819C97.5769 22.4819 98.5848 22.2507 99.382 21.7882C100.201 21.3258 100.91 20.6761 101.508 19.8392V22.1184C101.508 23.4619 101.132 24.4968 100.379 25.2237C99.6478 25.9503 98.6179 26.3137 97.289 26.3137C95.0077 26.3137 93.6455 25.3778 93.2026 23.5058H89.5481C89.7031 25.3557 90.434 26.7652 91.7407 27.7341C93.0698 28.7251 94.8195 29.2205 96.9899 29.2205C99.7142 29.2205 101.741 28.5708 103.07 27.2716C104.399 25.9944 105.063 24.2766 105.063 22.1184Z" fill="#1C1C1E"/>
</svg>
