<?xml version="1.0" encoding="UTF-8" standalone="no"?>
<svg
   viewBox="0 0 441.15027 128.69"
   version="1.1"
   id="svg38"
   sodipodi:docname="velebit-ai-logo-horizontal.svg"
   width="441.15027"
   height="128.69"
   inkscape:version="1.2.1 (8a69933317, 2022-10-28, custom)"
   inkscape:export-filename="../4cfbf1a9/velebit-ai-logo-horizontal.png"
   inkscape:export-xdpi="222.83563"
   inkscape:export-ydpi="222.83563"
   xmlns:inkscape="http://www.inkscape.org/namespaces/inkscape"
   xmlns:sodipodi="http://sodipodi.sourceforge.net/DTD/sodipodi-0.dtd"
   xmlns="http://www.w3.org/2000/svg"
   xmlns:svg="http://www.w3.org/2000/svg"
   xmlns:rdf="http://www.w3.org/1999/02/22-rdf-syntax-ns#"
   xmlns:cc="http://creativecommons.org/ns#"
   xmlns:dc="http://purl.org/dc/elements/1.1/">
  <metadata
     id="metadata42">
    <rdf:RDF>
      <cc:Work
         rdf:about="">
        <dc:format>image/svg+xml</dc:format>
        <dc:type
           rdf:resource="http://purl.org/dc/dcmitype/StillImage" />
        <dc:title>RGB VelebitAi-bez_sjene-01</dc:title>
      </cc:Work>
    </rdf:RDF>
  </metadata>
  <sodipodi:namedview
     pagecolor="#ffffff"
     bordercolor="#666666"
     borderopacity="1"
     objecttolerance="10"
     gridtolerance="10"
     guidetolerance="10"
     inkscape:pageopacity="0"
     inkscape:pageshadow="2"
     inkscape:window-width="2289"
     inkscape:window-height="1358"
     id="namedview40"
     showgrid="false"
     showguides="true"
     inkscape:guide-bbox="true"
     fit-margin-top="6"
     fit-margin-left="6"
     fit-margin-right="6"
     fit-margin-bottom="6"
     inkscape:zoom="2.6915677"
     inkscape:cx="199.69774"
     inkscape:cy="36.595772"
     inkscape:window-x="26"
     inkscape:window-y="23"
     inkscape:window-maximized="0"
     inkscape:current-layer="g36"
     inkscape:showpageshadow="2"
     inkscape:pagecheckerboard="0"
     inkscape:deskcolor="#d1d1d1" />
  <defs
     id="defs4">
    <style
       id="style2">.a{isolation:isolate;}.b{fill:#fd495c;}.c{fill:#d0d2d3;mix-blend-mode:multiply;}.d{fill:#676767;}</style>
  </defs>
  <title
     id="title6">RGB VelebitAi-bez_sjene-01</title>
  <g
     class="a"
     id="g36"
     style="isolation:isolate"
     transform="translate(-0.22353,-59.32726)">
    <path
       class="b"
       d="m 42.16353,164.15726 57.06,-98.83 10.27,17.86 -57,98.83 z"
       id="path8"
       inkscape:connector-curvature="0"
       style="fill:#ce3c4c;fill-opacity:1" />
    <path
       class="b"
       d="m 6.22353,101.90726 10.27,-17.86 46.25,80.11 -10.25,17.86 z"
       id="path12"
       inkscape:connector-curvature="0"
       style="fill:#fd495c" />
    <path
       class="b"
       d="m 58.49353,135.85726 10.36,-18 h 27.69 l 10.28,18 z"
       id="path14"
       inkscape:connector-curvature="0"
       style="fill:#fd495c" />
    <path
       class="b"
       d="m 88.91353,83.18726 10.31,-17.86 46.27,80.12 -10.31,17.86 z"
       id="path16"
       inkscape:connector-curvature="0"
       style="fill:#fd495c" />
    <path
       class="d"
       d="m 162.58255,112.00648 15.32105,33.53777 15.59682,-33.53777 h -4.82613 l -10.72473,24.51367 -10.89326,-24.51367 z"
       id="path18"
       inkscape:connector-curvature="0"
       style="fill:#676767;stroke-width:1.53210473" />
    <path
       class="d"
       d="m 224.89325,112.00648 v 3.06421 h -19.41177 v 12.10362 h 17.2515 v 3.06421 h -17.2515 v 11.79721 h 19.41177 v 3.38595 h -23.10414 v -33.4152 z"
       id="path20"
       inkscape:connector-curvature="0"
       style="fill:#676767;stroke-width:1.53210473" />
    <path
       class="d"
       d="m 238.39109,112.00648 h -3.60044 v 33.53777 h 22.62918 v -3.38595 h -19.02874 z"
       id="path22"
       inkscape:connector-curvature="0"
       style="fill:#676767;stroke-width:1.53210473" />
    <path
       class="d"
       d="m 290.881,112.00648 v 3.06421 h -19.47305 v 12.10362 h 17.2515 v 3.06421 h -17.2515 v 11.79721 H 290.881 v 3.38595 h -23.08882 v -33.4152 z"
       id="path24"
       inkscape:connector-curvature="0"
       style="fill:#676767;stroke-width:1.53210473" />
    <path
       class="d"
       d="m 335.84828,112.00648 h 3.76897 v 33.53777 h -3.76897 z"
       id="path26"
       inkscape:connector-curvature="0"
       style="fill:#676767;stroke-width:1.53210473" />
    <path
       class="d"
       d="m 347.81401,112.00648 h 24.71285 v 3.06421 h -10.28042 v 30.41228 h -4.21329 v -30.351 h -10.21914 z"
       id="path28"
       inkscape:connector-curvature="0"
       style="fill:#676767;stroke-width:1.53210473" />
    <path
       class="d"
       d="m 421.64614,145.54425 -17.49663,-33.53777 -17.49664,33.53777 h 6.7719 l 2.60458,-5.37769 h 11.78189 l -2.72715,-5.43897 h -6.32759 l 5.33172,-10.63281 10.72474,21.44947 z"
       id="path30"
       inkscape:connector-curvature="0"
       style="fill:#676767;stroke-width:1.53210473" />
    <path
       class="d"
       d="m 429.56712,112.00648 h 5.80668 v 33.53777 h -5.80668 z"
       id="path32"
       inkscape:connector-curvature="0"
       style="fill:#676767;stroke-width:1.53210473" />
    <path
       class="d"
       d="m 301.69766,112.00648 v 33.53777 h 13.86555 c 7.66052,-0.16853 10.72473,-4.51971 10.87794,-9.51437 0,-5.66879 -5.77603,-8.02823 -5.77603,-8.02823 2.63522,-1.05715 4.30521,-3.40127 4.30521,-8.12016 0,-5.00997 -3.92219,-7.87501 -9.49905,-7.87501 z m 13.54381,3.06421 c 2.17559,0 5.63814,0.44431 5.86796,5.66878 0.22981,5.22448 -2.97228,5.94457 -6.28163,5.94457 h -9.3918 v -11.61335 h 9.85143 z m -0.30642,14.64692 c 2.16026,0 6.23566,0.18385 7.50731,4.9487 a 6.2509874,6.2509874 0 0 1 -6.4808,7.4307 H 305.436 v -12.36408 h 9.49905 z"
       id="path34"
       inkscape:connector-curvature="0"
       style="fill:#676767;stroke-width:1.53210473" />
  </g>
</svg>
