<svg width="185" height="110" viewBox="0 0 185 110" fill="none" xmlns="http://www.w3.org/2000/svg">
<g clip-path="url(#clip0)">
<path d="M0.712843 109.674C0.116896 109.674 -0.181077 109.023 0.116896 108.535L3.84156 103.165H0.712843C-0.181077 103.165 -0.181077 101.701 0.712843 101.701H5.03346C5.77839 101.701 6.07636 102.515 5.48042 103.165L1.90474 108.21H5.33143C6.22535 108.21 6.22535 109.674 5.18244 109.674H0.712843Z" fill="#E1DFDF"/>
<path d="M6.82081 109.675C6.52284 109.512 6.22487 109.024 6.52284 108.536L9.50257 102.027C9.80054 101.376 10.5455 101.376 10.8434 102.027L13.8232 108.536C14.2701 109.512 12.9293 110.163 12.6313 109.186L12.1843 108.21H8.16169L7.71473 109.186C7.56574 109.675 7.26777 109.837 6.82081 109.675ZM11.2904 106.746L10.0985 103.979L8.90662 106.746H11.2904Z" fill="#E1DFDF"/>
<path d="M20.9752 108.861C20.2303 109.512 19.3364 109.837 18.4424 109.837C16.2076 109.837 14.7178 108.535 14.7178 105.769C14.7178 103.491 16.3566 101.701 18.5914 101.701C19.4854 101.701 20.3793 102.026 20.9752 102.677C21.5712 103.328 20.6772 104.467 20.0813 103.816C19.6343 103.328 19.1874 103.165 18.5914 103.165C17.2505 103.165 16.0587 104.304 16.0587 105.932C16.0587 107.559 17.1016 108.698 18.4424 108.698C19.0384 108.698 19.6343 108.535 20.0813 108.21V106.745H18.4424C17.5485 106.745 17.5485 105.281 18.4424 105.281H20.5283C20.9752 105.281 21.2732 105.606 21.2732 105.932V108.372C21.2732 108.372 21.1242 108.535 20.9752 108.861Z" fill="#E1DFDF"/>
<path d="M24.1036 109.024C24.1036 110 22.7627 110 22.7627 109.024V102.515C22.7627 102.189 23.0607 101.864 23.3586 101.864H26.1894C28.8711 101.864 29.4671 105.769 27.2323 106.745L28.5732 108.535C29.1691 109.349 27.9772 110.325 27.3813 109.349L25.7424 106.908H24.1036V109.024ZM24.1036 105.606H26.1894C27.5303 105.606 27.6792 103.166 26.1894 103.166H24.1036V105.606Z" fill="#E1DFDF"/>
<path d="M30.51 109.674C30.212 109.674 29.9141 109.349 29.9141 109.024V102.515C29.9141 102.026 30.212 101.864 30.51 101.864H34.2347C35.2776 101.864 35.1286 103.328 34.2347 103.328H31.2549V105.118H33.9367C34.8306 105.118 34.8306 106.583 33.9367 106.583H31.2549V108.373H34.5327C35.4266 108.373 35.5756 109.837 34.5327 109.837H30.51V109.674Z" fill="#E1DFDF"/>
<path d="M37.0657 109.674C36.6187 109.674 36.4697 109.349 36.4697 109.024V102.515C36.4697 102.026 36.7677 101.864 37.0657 101.864H40.0454C41.3863 101.864 42.1312 102.84 42.1312 104.142C42.1312 104.63 41.9822 105.118 41.5353 105.606C42.4292 105.932 42.7272 106.745 42.7272 107.559C42.7272 108.861 41.8333 110 40.3434 110H37.0657V109.674ZM39.8964 103.166H37.6616V104.955H39.8964C40.3434 104.955 40.6414 104.63 40.6414 103.979C40.6414 103.491 40.4924 103.166 39.8964 103.166ZM37.8106 108.373H40.3434C41.5353 108.373 41.5353 106.257 40.3434 106.257C39.5984 106.257 38.5555 106.257 37.8106 106.257V108.373Z" fill="#E1DFDF"/>
<path d="M43.77 109.675C43.4721 109.512 43.1741 109.024 43.4721 108.536L46.4518 102.027C46.7498 101.376 47.4947 101.376 47.7927 102.027L50.7724 108.536C51.2194 109.512 49.8785 110.163 49.5805 109.186L49.1336 108.373H45.2599L44.8129 109.349C44.515 109.675 44.217 109.837 43.77 109.675ZM48.3886 106.746L47.1967 103.979L45.8558 106.746H48.3886Z" fill="#E1DFDF"/>
<path d="M51.5176 105.607C51.5176 103.329 52.8585 101.539 55.2422 101.539C56.1362 101.539 56.8811 101.864 57.626 102.515C57.924 102.84 57.924 103.329 57.626 103.654C57.3281 103.979 56.8811 103.817 56.5831 103.654C56.1362 103.166 55.6892 103.003 55.0933 103.003C53.4544 103.003 52.7095 104.305 52.7095 105.607C52.7095 107.071 53.4544 108.373 55.0933 108.373C55.6892 108.373 56.2852 108.047 56.7321 107.559C57.0301 107.234 57.477 107.397 57.775 107.722C57.924 108.047 58.073 108.373 57.626 108.861C56.8811 109.675 55.9872 109.837 55.0933 109.837C52.5605 109.837 51.5176 107.885 51.5176 105.607Z" fill="#E1DFDF"/>
<path d="M53.6036 99.2607C53.0077 98.7725 53.7526 97.9589 54.1996 98.2844L54.9445 98.9352L55.6894 98.2844C56.1364 97.7962 56.8813 98.7725 56.2854 99.2607L55.2425 100.237C55.0935 100.4 54.7955 100.4 54.6465 100.237L53.6036 99.2607Z" fill="#E1DFDF"/>
<path d="M61.7978 106.257L60.7549 107.396V109.024C60.7549 110 59.4141 110 59.4141 109.024C59.4141 106.745 59.4141 104.63 59.4141 102.515C59.4141 101.538 60.7549 101.538 60.7549 102.515V105.444L63.7347 102.027C64.0326 101.701 64.4796 101.701 64.7776 102.027C65.0755 102.352 65.0755 102.677 64.7776 103.003C64.1816 103.816 63.4367 104.467 62.6918 105.281L65.2245 108.535C65.8205 109.512 64.4796 110.163 64.0326 109.512L61.7978 106.257Z" fill="#E1DFDF"/>
<path d="M66.5645 102.352C66.5645 101.376 67.9053 101.376 67.9053 102.352V108.861C67.9053 109.838 66.5645 109.838 66.5645 108.861V102.352Z" fill="#E1DFDF"/>
<path d="M72.6729 102.352C72.6729 101.376 74.0137 101.376 74.0137 102.352V108.861C74.0137 109.838 72.6729 109.838 72.6729 108.861V102.352Z" fill="#E1DFDF"/>
<path d="M75.5045 102.515C75.5045 102.027 75.6534 101.701 76.1004 101.701C76.5474 101.701 76.5474 101.864 76.8453 102.027L80.272 106.746V102.352C80.272 102.027 80.57 101.539 80.868 101.539C81.3149 101.539 81.6129 102.027 81.6129 102.352V108.861C81.6129 109.349 81.3149 109.512 81.017 109.675C80.719 109.675 80.421 109.512 80.123 109.349L76.6964 104.468V108.861C76.6964 109.349 76.3984 109.675 76.1004 109.675C75.6534 109.675 75.3555 109.349 75.3555 108.861V102.515H75.5045Z" fill="#E1DFDF"/>
<path d="M86.9758 109.837C85.0389 110 82.9531 108.536 82.9531 105.769C82.9531 103.003 85.0389 101.539 86.9758 101.539C88.7636 101.701 90.7004 103.003 90.7004 105.769C90.8494 108.373 88.9126 109.837 86.9758 109.837ZM86.9758 103.003C85.7839 103.003 84.443 103.979 84.443 105.769C84.443 107.559 85.7839 108.536 86.9758 108.536C88.1677 108.536 89.5085 107.559 89.5085 105.769C89.3595 103.817 88.1677 103.003 86.9758 103.003Z" fill="#E1DFDF"/>
<path d="M94.4256 109.187L91.5948 102.84C91.1479 101.864 92.4888 101.213 92.9357 102.19L93.8296 104.468L95.0215 107.559L96.2134 104.468L97.1073 102.19C97.5543 101.376 98.7462 101.864 98.4482 102.84L95.7665 109.349C95.6175 109.837 94.8725 110.163 94.4256 109.187Z" fill="#E1DFDF"/>
<path d="M98.7456 109.675C98.4476 109.512 98.1497 109.024 98.4476 108.536L101.427 102.027C101.725 101.376 102.47 101.376 102.768 102.027L105.748 108.536C106.195 109.512 104.854 110.163 104.556 109.186L104.109 108.21H100.235L99.7885 109.186C99.4906 109.675 99.0436 109.837 98.7456 109.675ZM103.215 106.746L102.023 103.979L100.682 106.746H103.215Z" fill="#E1DFDF"/>
<path d="M106.345 105.607C106.345 103.329 107.686 101.539 110.069 101.539C110.963 101.539 111.708 101.864 112.453 102.515C112.751 102.84 112.751 103.329 112.453 103.654C112.155 103.979 111.708 103.817 111.41 103.654C110.963 103.166 110.516 103.003 109.92 103.003C108.282 103.003 107.537 104.305 107.537 105.607C107.537 107.071 108.282 108.373 109.92 108.373C110.516 108.373 111.112 108.047 111.559 107.559C111.857 107.234 112.304 107.397 112.602 107.722C112.751 108.047 112.9 108.373 112.453 108.861C111.708 109.675 110.814 109.837 109.92 109.837C107.537 109.837 106.345 107.885 106.345 105.607Z" fill="#E1DFDF"/>
<path d="M114.092 102.352C114.092 101.376 115.433 101.376 115.433 102.352V108.861C115.433 109.838 114.092 109.838 114.092 108.861V102.352Z" fill="#E1DFDF"/>
<path d="M120.349 102.352C120.349 101.376 121.69 101.376 121.69 102.352V106.909C121.69 108.698 120.945 109.838 119.008 109.838C118.115 109.838 117.37 109.512 116.774 108.698C116.178 108.048 117.221 106.909 117.817 107.722C118.264 108.373 118.71 108.536 119.157 108.373C119.753 108.373 120.2 108.048 120.349 106.909V102.352Z" fill="#E1DFDF"/>
<path d="M123.179 103.491C123.477 101.213 126.457 100.888 127.947 102.027C128.692 102.678 127.947 103.654 127.202 103.166C126.457 102.678 124.669 102.352 124.371 103.491C124.073 105.444 128.692 104.305 128.543 107.396C128.543 110.325 124.52 110.325 123.179 109.024C122.881 108.698 122.881 108.21 123.03 107.885C123.328 107.559 123.626 107.559 123.924 107.885C124.818 108.535 127.053 109.024 127.202 107.396C127.351 105.769 122.881 106.746 123.179 103.491Z" fill="#E1DFDF"/>
<path d="M132.417 106.257L131.374 107.396V109.024C131.374 110 130.033 110 130.033 109.024C130.033 106.745 130.033 104.63 130.033 102.515C130.033 101.538 131.374 101.538 131.374 102.515V105.444L134.354 102.027C134.652 101.701 135.099 101.701 135.397 102.027C135.695 102.352 135.695 102.677 135.397 103.003C134.801 103.816 134.056 104.467 133.311 105.281L135.844 108.535C136.44 109.512 135.099 110.163 134.652 109.512L132.417 106.257Z" fill="#E1DFDF"/>
<path d="M137.036 102.352C137.036 101.376 138.377 101.376 138.377 102.352V108.861C138.377 109.838 137.036 109.838 137.036 108.861V102.352Z" fill="#E1DFDF"/>
<path d="M142.846 105.607C142.846 103.329 144.187 101.539 146.57 101.539C147.464 101.539 148.209 101.864 148.954 102.515C149.252 102.84 149.252 103.329 148.954 103.654C148.656 103.979 148.209 103.817 147.911 103.654C147.464 103.166 147.017 103.003 146.421 103.003C144.783 103.003 144.038 104.305 144.038 105.607C144.038 107.071 144.783 108.373 146.421 108.373C147.017 108.373 147.613 108.047 148.06 107.559C148.358 107.234 148.805 107.397 149.103 107.722C149.252 108.047 149.401 108.373 148.954 108.861C148.209 109.675 147.315 109.837 146.421 109.837C144.038 109.837 142.846 107.885 142.846 105.607Z" fill="#E1DFDF"/>
<path d="M151.19 109.674C150.892 109.674 150.594 109.349 150.594 109.024V102.515C150.594 102.026 150.892 101.864 151.19 101.864H154.914C155.957 101.864 155.808 103.328 154.914 103.328H151.935V105.118H154.616C155.51 105.118 155.51 106.583 154.616 106.583H151.935V108.373H155.212C156.106 108.373 156.255 109.837 155.212 109.837H151.19V109.674Z" fill="#E1DFDF"/>
<path d="M157 102.515C157 102.027 157.149 101.701 157.596 101.701C158.042 101.701 158.042 101.864 158.34 102.027L161.767 106.746V102.352C161.767 102.027 162.065 101.539 162.363 101.539C162.81 101.539 163.108 102.027 163.108 102.352V108.861C163.108 109.349 162.81 109.512 162.512 109.675C162.214 109.675 161.916 109.512 161.618 109.349L158.191 104.468V108.861C158.191 109.349 157.893 109.675 157.596 109.675C157.149 109.675 156.851 109.349 156.851 108.861V102.515H157Z" fill="#E1DFDF"/>
<path d="M166.833 103.165H165.045C164.152 103.165 164.152 101.701 165.045 101.701H169.962C170.856 101.701 170.856 103.165 169.962 103.165H168.174V109.023C168.174 110 166.833 110 166.833 109.023V103.165Z" fill="#E1DFDF"/>
<path d="M170.558 109.675C170.26 109.512 169.962 109.024 170.26 108.536L173.24 102.027C173.538 101.376 174.283 101.376 174.581 102.027L177.56 108.536C178.007 109.512 176.667 110.163 176.369 109.186L175.922 108.21H172.048L171.601 109.186C171.303 109.675 171.005 109.837 170.558 109.675ZM175.177 106.746L173.985 103.979L172.644 106.746H175.177Z" fill="#E1DFDF"/>
<path d="M179.944 109.024C179.944 110 178.604 110 178.604 109.024V102.515C178.604 102.189 178.901 101.864 179.199 101.864H182.03C184.712 101.864 185.308 105.769 183.073 106.745L184.414 108.535C185.01 109.349 183.818 110.325 183.222 109.349L181.583 106.908H179.944V109.024ZM179.944 105.606H182.03C183.371 105.606 183.52 103.166 182.03 103.166H179.944V105.606Z" fill="#E1DFDF"/>
<path d="M61.499 66.3906C61.499 53.3729 68.9484 41.9824 83.2511 41.9824C88.6146 41.9824 92.9352 43.7723 97.4048 48.0031C99.0436 49.6303 99.3416 52.722 97.5538 54.5119C95.9149 56.1391 93.3822 55.9764 91.8923 54.3492C89.3595 51.4202 86.6778 50.6066 83.2511 50.6066C73.7159 50.6066 69.0973 57.9291 69.0973 66.2279C69.0973 74.6894 73.5669 82.3373 83.2511 82.3373C86.8267 82.3373 90.1045 80.7101 92.9352 77.9438C94.872 76.3166 97.5538 77.1302 98.5967 78.7574C99.6396 80.2219 100.087 82.8254 97.8517 85.1035C93.5311 89.497 88.3166 90.4733 83.1021 90.4733C68.2034 90.6361 61.499 79.571 61.499 66.3906Z" fill="#E1DFDF"/>
<path d="M112.751 90.1479C110.516 90.1479 108.877 88.358 108.877 85.9172V47.5149C108.877 45.0741 110.516 43.2842 112.751 43.2842H135.099C140.76 43.2842 140.76 52.0711 135.099 52.0711H117.22V62.3226H132.864C138.376 62.3226 138.376 71.2722 132.864 71.2722H117.071V81.361H135.993C141.654 81.361 142.101 90.3106 135.993 90.3106H112.751V90.1479Z" fill="#E1DFDF"/>
<path d="M157.446 85.7545C157.446 91.6124 149.252 91.9379 149.252 85.9172V47.3522C149.252 44.9114 150.891 43.2842 152.977 43.2842H169.514C185.307 43.2842 188.584 66.3906 175.325 72.0859L183.519 83.1509C186.797 88.358 180.241 93.4024 176.516 88.1953L167.13 73.5504H157.446V85.7545ZM157.446 65.7397H169.365C177.41 65.7397 178.006 51.4202 169.365 51.4202H157.446V65.7397Z" fill="#E1DFDF"/>
<path d="M4.28912 90.1478C0.415462 90.1478 -1.22339 86.0798 1.01141 83.1508L23.0614 51.0947H4.73608C-0.627445 51.0947 -0.180485 42.7959 4.73608 42.7959H29.7658C34.5334 42.7959 35.8743 47.6775 32.4476 51.5829L11.4405 81.6863H31.5537C36.4702 81.6863 37.2152 90.3105 31.1067 90.3105H4.28912V90.1478Z" fill="#E1DFDF"/>
<path d="M50.4742 90.3099C53.1895 90.3099 55.3908 87.9057 55.3908 84.9401C55.3908 81.9744 53.1895 79.5703 50.4742 79.5703C47.7588 79.5703 45.5576 81.9744 45.5576 84.9401C45.5576 87.9057 47.7588 90.3099 50.4742 90.3099Z" fill="#E1DFDF"/>
<path d="M46.899 70.6214C49.6143 70.6214 51.8155 68.2173 51.8155 65.2516C51.8155 62.2859 49.6143 59.8818 46.899 59.8818C44.1836 59.8818 41.9824 62.2859 41.9824 65.2516C41.9824 68.2173 44.1836 70.6214 46.899 70.6214Z" fill="#E1DFDF"/>
<path d="M49.1343 50.932C51.8497 50.932 54.0509 48.5279 54.0509 45.5622C54.0509 42.5966 51.8497 40.1924 49.1343 40.1924C46.419 40.1924 44.2178 42.5966 44.2178 45.5622C44.2178 48.5279 46.419 50.932 49.1343 50.932Z" fill="#E1DFDF"/>
<path d="M56.2847 31.8929C59.0001 31.8929 61.2013 29.4888 61.2013 26.5231C61.2013 23.5575 59.0001 21.1533 56.2847 21.1533C53.5694 21.1533 51.3682 23.5575 51.3682 26.5231C51.3682 29.4888 53.5694 31.8929 56.2847 31.8929Z" fill="#E1DFDF"/>
<path d="M75.9514 31.5679C73.4186 31.5679 71.3328 29.2898 71.3328 26.5236V10.0887H56.1362C53.6034 10.0887 51.5176 7.81062 51.5176 5.04436C51.5176 2.2781 53.6034 0 56.1362 0H75.9514C78.4842 0 80.421 2.2781 80.421 5.04436V26.5236C80.421 29.2898 78.4842 31.5679 75.9514 31.5679Z" fill="#E1DFDF"/>
</g>
<defs>
<clipPath id="clip0">
<rect width="185" height="110" fill="white"/>
</clipPath>
</defs>
</svg>
